<?xml version="1.0" encoding="UTF-8"?>
<svg id="_Слой_1" data-name="Слой 1" xmlns="http://www.w3.org/2000/svg" viewBox="0 0 495.98 389">
  <defs>
    <style>
      .cls-1 {
        fill: #fff;
      }
    </style>
  </defs>
  <path class="cls-1" d="M409.38,376.15c-1.04,0-1.91-.21-2.73-.64-2.04-1.09-2.89-2.84-2.92-6.03-.04-3.41-.04-6.82-.03-10.24v-7.26c-.01-5.05-.02-10.11-.02-15.16v-10.72c.01-18.57,.02-37.77,.07-55.72,0-2.16-.8-4.9-4.66-5.71-1.75-.37-3.53-.8-5.25-1.21-1.79-.43-3.64-.88-5.49-1.27-2.22-.46-4.47-.86-6.64-1.24-1.29-.23-2.59-.45-3.88-.69-2.23-.42-4.46-.84-6.7-1.27-3.75-.71-7.49-1.43-11.24-2.11-1.32-.24-2.62-.35-3.87-.46-.48-.04-.95-.08-1.43-.13-.25-.03-.51-.03-.77-.03,0,0-.4,0-.41,0-2.47-.93-4.88-1.06-7.22-1.18-1.11-.06-2.17-.12-3.17-.26-3.76-.53-7.2-.95-10.52-1.27l-5.24-.51c-7.64-.74-15.54-1.51-23.33-2.09-8.13-.61-16.88-1.2-25.75-1.4-14.42-.32-31.48-.64-48.67-.64h-3.63c-7.56,.03-15.21,.48-22.6,.92-2.16,.13-4.32,.26-6.48,.38-6.02,.33-11.56,.76-16.94,1.32-4.4,.45-8.84,1-13.14,1.54-2.57,.32-5.14,.64-7.71,.94-1.69,.2-3.38,.37-5.07,.54-2.69,.27-5.47,.55-8.22,.94-3.02,.42-6.05,.96-8.99,1.47-1.67,.29-3.34,.59-5.02,.86-1.33,.22-2.66,.41-3.99,.61-2.08,.31-4.24,.63-6.37,1.03-2.47,.46-4.94,1.01-7.32,1.54-1.18,.26-2.37,.53-3.55,.78-1.88,.4-3.77,.8-5.65,1.2-2.78,.59-5.55,1.18-8.33,1.78-2.75,.59-4.26,2.49-4.26,5.34,.05,22.15,.07,47.43,.04,75.13,0,2.82-.06,5.69-.12,8.48-.06,2.55-.11,5.11-.12,7.66,0,1.49,.05,2.97,.11,4.4,.06,1.57,.13,3.06,.1,4.55-.03,2.2-.89,3.78-2.7,4.98-.9,.6-1.86,.88-3,.88-1.35,0-2.86-.38-4.55-.84-1.58-.43-3.2-.94-4.77-1.44l-1.07-.34c-1.12-.35-2.23-.69-3.35-1.03-2.65-.81-5.39-1.64-8.01-2.58-1.16-.42-2.33-.83-3.5-1.25-5.04-1.79-10.24-3.64-15.12-5.85-5.62-2.55-11.17-5.59-16.55-8.54l-2.49-1.36c-5.27-2.88-10.27-6.71-15.31-11.74-5.73-5.71-9.09-11.13-10.59-17.08-.72-2.85-1.11-5.89-1.12-8.79C0,300.08,.01,272.41,.03,252.21v-12.93s.03-2.83,.03-2.83v-101.72c0-5.36,.01-10.72,.02-16.08,.03-12.64,.05-25.72-.07-38.59-.09-8.8,2.78-16.51,8.78-23.57,6.09-7.17,14.06-13.21,24.35-18.45,5.73-2.92,11.88-5.98,18.07-8.56,4.45-1.86,9.19-3.39,13.77-4.88l3.06-1c5.26-1.73,10.71-3.51,16.1-4.95,5.73-1.52,11.66-2.79,17.4-4.02l.62-.13c6.96-1.49,13.33-2.76,19.45-3.9,8.17-1.52,15.01-2.69,21.53-3.71,2.69-.42,5.48-.71,8.18-.99,1.65-.17,3.29-.35,4.94-.55,2.54-.31,5.08-.64,7.62-.97,2.37-.31,4.74-.62,7.1-.91,1.76-.22,4.07-.48,6.38-.64,1.78-.12,3.57-.24,5.35-.37,5.53-.39,11.25-.79,16.87-1.01l3.97-.16c12.98-.52,26.39-1.07,39.58-1.25,2.48-.03,4.96-.05,7.45-.05,8.86,0,17.88,.2,26.61,.39l2.94,.06c6.92,.15,13.82,.57,20.23,1,8.09,.55,16.27,1.25,24.18,1.93,3.35,.29,6.88,.68,10.5,1.17,2.47,.33,4.93,.71,7.4,1.08,2.12,.32,4.25,.65,6.37,.94,1.98,.28,3.96,.52,5.93,.77,2.72,.34,5.54,.7,8.28,1.12,2.17,.33,4.4,.78,6.56,1.21,1.41,.28,2.83,.56,4.24,.82,1.43,.26,2.86,.49,4.29,.73,2.09,.34,4.25,.7,6.34,1.12,6.12,1.25,11.62,2.46,16.83,3.69l2.37,.56c4.25,.99,8.65,2.02,12.81,3.37l.94,.3c9.37,3.05,19.06,6.2,28.31,9.89,7.5,3,14.89,6.56,21.98,10.6,10.42,5.94,17.59,12.29,22.56,19.98,2.37,3.67,4.05,6.84,4.52,10.42,.1,.78,.22,1.57,.33,2.35,.4,2.81,.78,5.46,.79,8.08,.09,35.55,.06,112.03,.04,141.46,0,3.25-.07,6.57-.13,9.79-.07,3.5-.14,7.13-.14,10.71,0,3.56,.01,8.07,.02,13.12,.01,18.25,.03,43.25,.34,56.1,.28,11.41-3.96,21.06-12.96,29.52-6.76,6.36-14.5,11.58-23,15.52-6.69,3.1-14.6,6.71-22.52,9.92-3,1.22-6.09,2.14-9.37,3.11-1.52,.45-3.04,.9-4.54,1.38-1.1,.35-2.21,.72-3.31,1.09-2.4,.8-4.67,1.56-7,2.18-1.27,.34-2.62,.65-3.89,.65ZM479.8,106.85c-19.42,15.26-42.48,23.02-62.58,29.1l-2.01,.61v226.54l4.81-1.55c.73-.23,1.39-.45,2.05-.67,1.38-.46,2.77-.89,4.16-1.33,3.18-1,6.47-2.03,9.65-3.34,7.92-3.27,14.39-6.19,20.34-9.19,8.57-4.31,15.3-9.09,20.59-14.62,5.28-5.52,7.83-11.75,7.82-19.06-.09-35.5-.08-105.75-.07-157.04,0-17.6,0-33.32,0-45.24,0-.54-.05-1.04-.1-1.53-.02-.21-.04-.44-.07-.69l-.43-5.26-4.15,3.26ZM11.64,126.06c0,52.26,0,145.97,.02,189.59,0,1.81,.07,3.74,.61,5.57,1.81,6.22,5.86,11.42,12.75,16.38,5.28,3.81,10.82,7.28,16.46,10.31,4.59,2.47,9.44,4.47,14.14,6.4l2.06,.85c4.54,1.88,9.25,3.54,13.41,5.01,1.43,.51,2.89,.86,4.3,1.21,.61,.15,1.23,.3,1.85,.47l3.56,.95V136.6l-2.02-.61c-24.83-7.5-44.97-15.3-62.58-29l-4.58-3.56v22.62Zm236.29,111.14c50.51,0,101.78,5.29,152.38,15.74l3.41,.7v-4.22c0-.57,.01-1.14,0-1.71-.17-6.56-.52-71.12-.49-78.27,.03-7.66,.17-15.47,.31-23.01,.06-3.42,.13-6.84,.18-10.26,0-.43,0-.86-.03-1.29-.03-.58-.05-1.14,.02-1.51l.06-.32c.29-1.51,.56-2.95,1.11-4.05,.64-1.28,1.78-1.95,4.53-2.64,4.82-1.21,9.57-2.82,14.16-4.37l1.67-.56c.94-.32,1.88-.63,2.82-.94,4.41-1.47,8.98-2.98,13.36-4.87,7.5-3.22,15.42-6.78,22.56-11.82,.6-.42,1.2-.84,1.79-1.26,5.54-3.87,11.28-7.86,15.25-14.04,4.04-6.28,4.43-12.66,1.16-18.96-3.41-6.56-8.71-11-12.41-13.78-7.66-5.75-16.6-10.6-27.34-14.85-8.86-3.5-18.06-6.42-26.95-9.25l-1.52-.48c-6.14-1.95-12.47-3.54-18.44-4.99-3.43-.84-6.92-1.52-10.29-2.19-1.49-.29-2.97-.58-4.46-.89-1.09-.23-2.19-.46-3.28-.69-2.56-.54-5.2-1.1-7.84-1.57-2.28-.4-4.59-.72-6.82-1.03-1.41-.2-2.81-.39-4.22-.61-1.75-.27-3.51-.56-5.26-.85-3.15-.52-6.41-1.06-9.66-1.48-3.13-.4-6.31-.69-9.37-.96-1.75-.16-3.5-.31-5.25-.49-2.72-.28-5.44-.58-8.16-.87-5.25-.57-10.68-1.17-16.05-1.61-7.42-.61-15.06-1.04-23.34-1.33-7.26-.26-14.37-.49-21.58-.49-1.56,0-3.12,.01-4.68,.03-15.66,.24-32.31,.65-54,1.32-4.29,.13-8.6,.49-12.77,.83-1.97,.16-3.94,.33-5.92,.47-.88,.06-1.76,.11-2.64,.16-1.74,.1-3.54,.2-5.34,.4-3.31,.37-6.65,.8-9.89,1.21-2.2,.28-4.4,.56-6.6,.82-1.85,.22-3.71,.42-5.57,.62-3.46,.37-7.03,.76-10.55,1.29-5.76,.88-11.56,1.96-17.17,3.02l-2.16,.4c-4.08,.76-8.09,1.62-12.18,2.51-1.16,.25-2.29,.55-3.39,.83-1.03,.27-2.06,.54-3.1,.77-1.72,.38-3.45,.73-5.18,1.07-3.15,.64-6.42,1.29-9.62,2.13-4.71,1.23-9.41,2.72-13.95,4.16l-2.27,.72c-.87,.27-1.75,.55-2.62,.82-3.5,1.08-7.11,2.2-10.6,3.65-5.97,2.48-12.22,5.32-19.68,8.93-8.66,4.19-15.59,9.11-21.19,15.04-3.73,3.95-8.5,10.22-6.9,19.02,1.09,5.95,4.54,11.09,10.55,15.71,6.16,4.73,11.88,8.55,17.46,11.66,5.56,3.1,11.5,5.54,17.25,7.9l1.21,.49c3.43,1.41,6.97,2.54,10.4,3.64,1.01,.32,2.02,.65,3.03,.98,1.31,.43,2.62,.89,3.93,1.35,3.61,1.27,7.34,2.58,11.22,3.31,3.2,.6,5.33,4,5.3,6.78-.11,11.56-.08,60.54-.06,86.85v14.24s0,19.32,0,19.32l3.41-.7c50.57-10.42,101.8-15.71,152.27-15.71Z"/>
  <path class="cls-1" d="M155,389c-6.78,0-15.47-.56-25.84-1.68v-9.25c.26,.05,.53,.11,.81,.17,1.93,.4,3.23,.66,3.89,.79,.68,.13,1.8,.34,3.37,.61,1.63,.28,2.85,.46,3.74,.55,.83,.09,1.91,.2,3.24,.33,1.39,.14,2.76,.23,4.07,.28,1.27,.04,2.66,.07,4.24,.07,5.68,0,9.64-.74,12.09-2.27,2.85-1.77,4.3-4.93,4.3-9.38v-9.87c0-5.98-5.42-9.02-16.12-9.02h-12.69v-7.49h12.69c11.39,0,13.1-6.47,13.1-10.33v-8.29c0-4.67-2.05-6.93-3.77-8-2.13-1.33-5.89-1.94-11.82-1.94-4.63,0-11.46,.43-20.32,1.29v-7.9c10.5-.67,18.04-1.01,22.42-1.01,9.87,0,17.19,1.1,21.74,3.28,3.97,1.9,5.82,5.26,5.82,10.6v14.08c0,1.98-.54,3.52-1.66,4.69-1.28,1.35-2.73,2.23-4.43,2.71l-8.5,2.38,8.3,3.02c9.71,3.53,9.71,8.47,9.71,10.1v13.95c0,6.37-2.05,10.72-6.28,13.3-4.61,2.82-12.04,4.25-22.07,4.25Z"/>
  <path class="cls-1" d="M234.46,389c-3.48,0-6.5-.11-8.97-.32-2.33-.2-4.89-.74-7.62-1.59-2.52-.79-4.53-1.86-5.96-3.19-1.44-1.33-2.71-3.32-3.78-5.91-1.08-2.62-1.63-5.89-1.63-9.71v-39.73c0-4.02,.68-7.48,2.02-10.29,1.34-2.79,2.91-4.91,4.66-6.31,1.8-1.42,4.22-2.55,7.21-3.37,3.19-.87,6.03-1.42,8.44-1.62,2.51-.21,5.51-.32,8.9-.32,2.83,0,9.84,.38,20.84,1.13v8.26c-10.78-1.19-18.18-1.77-22.55-1.77-8.75,0-11.43,1.13-12.78,2.12-2.28,1.66-3.34,5.06-3.34,10.71v12.96h16.91c4.12,0,7.34,.06,9.57,.19,2.09,.12,4.48,.51,7.11,1.17,2.32,.58,4.02,1.37,5.06,2.34,1.08,1.02,2.04,2.59,2.85,4.68,.83,2.16,1.25,4.94,1.25,8.25v11.58c0,3.8-.57,7.06-1.68,9.68-1.1,2.58-2.42,4.56-3.94,5.89-1.53,1.35-3.6,2.44-6.14,3.24-2.73,.85-5.29,1.39-7.62,1.59-2.47,.21-5.44,.32-8.83,.32Zm-14.54-19.66c0,5.18,.91,8.4,2.85,10.14,1.9,1.7,5.47,2.43,11.96,2.43s10.04-.72,11.86-2.4c1.85-1.72,2.68-4.89,2.68-10.3v-12.37c0-4.06-1.08-6.71-3.29-8.12-1.32-.84-3.7-1.69-11.38-1.69h-14.67v22.3Z"/>
  <path class="cls-1" d="M310.76,389c-3.48,0-6.5-.11-8.97-.32-2.34-.2-4.97-.72-7.81-1.54-2.6-.75-4.66-1.8-6.12-3.13-1.48-1.34-2.79-3.34-3.89-5.97-1.12-2.66-1.69-5.94-1.69-9.75v-40.91c0-3.81,.57-7.09,1.69-9.75,1.1-2.62,2.41-4.63,3.89-5.97,1.47-1.32,3.53-2.38,6.13-3.13,2.84-.82,5.46-1.34,7.81-1.54,2.47-.21,5.48-.32,8.96-.32s6.34,.11,8.77,.32c2.29,.2,4.92,.74,7.79,1.6,2.68,.81,4.85,1.88,6.43,3.21,1.54,1.29,2.89,3.26,4.02,5.86,1.15,2.65,1.74,5.92,1.74,9.72v40.91c0,3.8-.58,7.07-1.74,9.72-1.13,2.6-2.48,4.58-4.02,5.86-1.58,1.32-3.74,2.4-6.43,3.21-2.87,.86-5.49,1.4-7.79,1.6-2.42,.21-5.37,.32-8.76,.32Zm.26-75.64c-6.41,0-10.13,.8-12.06,2.6-1.96,1.83-2.87,5.04-2.87,10.1v43.54c0,5.06,.91,8.27,2.87,10.1,1.93,1.8,5.65,2.6,12.06,2.6s10.01-.81,11.9-2.64c1.89-1.83,2.77-5.02,2.77-10.06v-43.54c0-5.04-.88-8.23-2.77-10.06-1.9-1.83-5.57-2.64-11.9-2.64Z"/>
  <path class="cls-1" d="M367.7,309.13c-5.91,0-10.72-4.81-10.72-10.72s4.81-10.72,10.72-10.72,10.72,4.81,10.72,10.72-4.81,10.72-10.72,10.72Z"/>
  <path class="cls-1" d="M251.12,178.46c-27.88,0-55.77-.1-83.65,.08-6.42,.04-10.78-5.49-10.16-9.82,.28-1.92,1.03-3.99,2.18-5.53,7.14-9.58,14.43-19.05,21.72-28.52,7.68-9.97,15.46-19.88,23.14-29.85,5.85-7.59,11.65-15.22,17.41-22.87,3.34-4.44,10.91-4.61,14.39-.16,4.54,5.8,8.89,11.74,13.39,17.57,5.51,7.14,11.1,14.21,16.62,21.34,5.82,7.52,11.6,15.08,17.41,22.61,1.52,1.97,4.09,2.5,5.7,1.22,1.67-1.33,1.66-3.68,.11-5.69-3.46-4.47-6.91-8.96-10.24-13.52-.39-.53-.36-1.86,.03-2.4,2.95-4.04,6.03-7.99,9.09-11.95,3.7-4.78,11.7-4.37,15.08,.38,4.48,6.29,9.43,12.26,14.14,18.39,6.32,8.23,12.61,16.49,18.91,24.75,2.21,2.9,4.36,5.84,6.62,8.7,2.55,3.23,3,6.72,1.1,10.32-1.8,3.4-4.8,4.97-8.68,4.96-19.83-.02-39.67-.01-59.5-.01-8.27,0-16.54,0-24.81,0Z"/>
  <circle class="cls-1" cx="294.04" cy="86.25" r="13.56"/>
</svg>