<svg width="224" height="69" viewBox="0 0 224 69" fill="none" xmlns="http://www.w3.org/2000/svg">
<g clip-path="url(#clip0_39_173)">
<path fill-rule="evenodd" clip-rule="evenodd" d="M106.181 0C108.242 0.00865095 110.304 0 112.368 0.00432548C112.363 0.728843 112.361 1.45336 112.361 2.17788C115.303 2.17788 118.402 2.41362 121.013 3.89509C122.69 4.82074 123.819 6.66556 123.719 8.59256C123.756 10.4417 122.634 12.1589 121.05 13.0694C118.443 14.605 115.325 14.8299 112.365 14.8731C112.365 15.6496 112.361 16.426 112.365 17.2046C110.304 17.1938 108.242 17.1981 106.181 17.2046C106.177 16.4325 106.174 15.6604 106.194 14.8905C102.897 14.7975 99.2637 14.5877 96.5977 12.4206C94.1731 10.4677 94.2361 6.30006 96.7434 4.44226C99.4203 2.43957 102.947 2.19734 106.179 2.1822C106.181 1.45552 106.183 0.728843 106.183 0.00216274L106.181 0ZM102.523 5.24464C100.442 6.72828 100.431 10.2492 102.484 11.7631C103.585 12.6174 105.035 12.7861 106.39 12.7256C106.403 9.91832 106.394 7.11325 106.394 4.30601C105.055 4.24762 103.613 4.39036 102.523 5.24464ZM112.144 4.30385C112.144 7.10892 112.146 9.91615 112.144 12.7234C113.692 12.8121 115.412 12.5309 116.517 11.3544C118.065 9.69988 117.93 6.72395 116.114 5.31168C115.005 4.42064 113.522 4.24113 112.144 4.30385ZM27.2057 0.865095C29.9174 0.0259528 32.8096 -0.0129764 35.6191 0.196809C38.6439 0.512569 41.8339 1.28467 44.1128 3.41064C46.8223 5.88914 47.0768 10.5758 44.5282 13.2533C42.2471 15.6777 38.8548 16.6509 35.6386 17.051C32.6704 17.3387 29.5521 17.276 26.7665 16.1081C25.0486 15.3987 23.6003 14.1919 22.3261 12.8683C23.3546 12.2541 24.3897 11.6507 25.4248 11.0473C27.2558 13.7529 30.6459 15.2603 33.8925 14.9553C35.6212 14.8018 37.3718 14.0383 38.4047 12.6044C39.0701 11.7285 39.3528 10.6342 39.4528 9.55714C36.2975 9.58526 33.1423 9.64581 29.987 9.67609C29.9913 8.83046 29.987 7.98483 29.9848 7.14136C33.1379 7.19976 36.291 7.25166 39.4419 7.31005C39.1984 5.79614 38.4155 4.32764 37.1239 3.45173C35.3146 2.18653 32.9357 2.00702 30.8264 2.49364C28.7714 2.95863 26.8839 4.05297 25.4226 5.5604C24.3919 4.96565 23.3546 4.38171 22.3217 3.78695C23.7047 2.46768 25.3704 1.42957 27.2057 0.865095ZM77.7226 0.289807C81.3172 -0.179507 85.1313 0.105974 88.4062 1.75398C90.5503 2.83319 92.4508 4.6607 93.0923 7.02241C93.6555 8.99915 93.1097 11.1835 91.8441 12.7796C89.9305 15.2408 86.8557 16.5017 83.8375 16.9645C80.4082 17.4446 76.7941 17.2327 73.5888 15.8464C71.2969 14.8537 69.1897 13.0889 68.3786 10.6709C67.6632 8.66825 68.1372 6.38224 69.3898 4.69314C71.3273 2.06758 74.563 0.739656 77.7226 0.289807ZM79.2405 2.22329C77.2094 2.59096 75.609 4.26492 75.1045 6.22004C74.5065 8.46928 74.6587 11.0602 76.0156 13.0197C76.9507 14.393 78.6142 15.1219 80.2473 15.1911C81.9521 15.3014 83.794 14.8061 84.9552 13.4976C86.2556 12.0638 86.66 10.0438 86.5665 8.16434C86.4861 6.4255 85.8924 4.61745 84.5594 3.4301C83.1394 2.15625 81.0649 1.85779 79.2405 2.22329ZM152.538 0.307109C156.135 -0.183833 159.955 0.0929977 163.248 1.71073C165.439 2.79858 167.405 4.6607 168.027 7.0808C168.593 9.12459 167.962 11.3587 166.618 12.9635C164.694 15.3122 161.699 16.5082 158.757 16.9645C155.565 17.4187 152.227 17.2478 149.189 16.1232C146.838 15.2538 144.638 13.6512 143.561 11.3414C142.622 9.38412 142.831 6.98348 143.996 5.16678C145.827 2.26655 149.241 0.793725 152.538 0.307109ZM154.049 2.24925C151.979 2.65584 150.426 4.4401 149.97 6.44063C149.413 8.79153 149.637 11.5404 151.272 13.4371C152.494 14.8623 154.502 15.3554 156.322 15.1694C157.776 15.0505 159.214 14.3822 160.112 13.2165C161.238 11.7977 161.571 9.91832 161.488 8.15352C161.399 6.38873 160.79 4.54608 159.407 3.36738C157.957 2.12381 155.876 1.85347 154.049 2.24925ZM0 16.7007C1.059 16.7007 2.12018 16.7007 3.18136 16.7007C3.97507 15.1651 4.79487 13.6404 5.56901 12.094C8.45246 12.0638 11.3337 12.0702 14.2172 12.0897C15.05 13.6317 15.9286 15.1543 16.7636 16.6985C19.0664 16.7028 21.3693 16.7072 23.6721 16.6963C20.5756 11.309 17.442 5.9432 14.3477 0.553661C12.4297 0.536359 10.5096 0.560149 8.59163 0.540685C5.71906 5.91941 2.84866 11.3046 0 16.7007ZM6.74327 9.87074C7.74791 7.96104 8.71993 6.03404 9.75284 4.13948C10.8292 6.04269 11.8904 7.95455 12.9559 9.86425C10.8858 9.88588 8.81344 9.86425 6.74327 9.87074ZM47.8596 0.542847C47.8596 5.93023 47.8444 11.3154 47.8683 16.7007C49.9211 16.6963 51.976 16.7007 54.031 16.6963C54.0266 14.7412 54.0505 12.7861 54.0157 10.8332C56.6056 10.7077 59.2172 10.9824 61.7919 10.5888C63.3315 10.3379 64.932 9.88371 66.1019 8.80234C67.3957 7.62365 67.7045 5.65556 67.1891 4.03783C66.8173 2.86995 65.8322 1.99404 64.7254 1.51608C62.8379 0.696402 60.7416 0.5688 58.7106 0.551498C55.0943 0.536359 51.478 0.551498 47.8596 0.542847ZM54.0396 2.99323C55.9141 3.07974 57.9125 2.70559 59.6782 3.51012C60.7764 3.97511 61.3287 5.32034 60.8829 6.42117C60.4263 7.6323 59.0476 8.14487 57.8516 8.27247C56.5817 8.36331 55.3052 8.2941 54.0331 8.31789C54.0331 6.54228 54.0244 4.76667 54.0396 2.99323ZM121.936 16.6942C122.942 16.7007 123.949 16.7007 124.956 16.6985C126.974 12.5114 129.014 8.33519 131.066 4.16327C133.298 8.33736 135.544 12.5071 137.758 16.692C140.06 16.692 142.365 16.7309 144.668 16.6704C141.726 11.3025 138.743 5.95618 135.84 0.5688C133.893 0.512569 131.945 0.562312 129.999 0.54501C127.313 5.93023 124.604 11.3025 121.936 16.6942ZM167.379 0.538522C167.379 1.3582 167.379 2.18004 167.381 3.00188C169.591 2.98674 171.802 2.98242 174.014 3.00188C174.009 7.56742 174.007 12.133 174.014 16.6985C176.056 16.6985 178.098 16.7028 180.142 16.6963C180.137 12.1308 180.137 7.5631 180.142 2.99539C182.364 2.99107 184.589 2.98458 186.813 2.99539C186.813 2.17788 186.813 1.36036 186.813 0.542847C180.333 0.542847 173.855 0.551498 167.377 0.536359L167.379 0.538522Z" fill="white"/>
<path fill-rule="evenodd" clip-rule="evenodd" d="M221.347 24.1103C222.139 23.4852 222.767 22.4644 223.828 22.3C224.144 22.5098 223.954 22.8883 223.813 23.1414C223.398 23.8248 222.8 24.372 222.313 25.0013C222.354 27.7328 222.404 30.4644 222.434 33.1959C222.278 33.2413 221.965 33.3343 221.808 33.3798C221.238 31.2927 220.697 29.1689 219.723 27.2268C213.801 33.4252 207.484 39.2711 200.611 44.414C192.421 50.5627 183.449 55.7014 173.931 59.5251C160.34 65.0358 145.751 67.8689 131.129 68.7038C109.93 69.9408 88.5062 67.3023 68.2612 60.9287C61.6223 58.7876 55.0464 56.3545 48.8359 53.1731C51.441 53.9496 53.9983 54.8968 56.6208 55.6278C77.0963 61.5883 98.4721 64.4907 119.807 64.2247C130.492 64.1901 141.208 63.5867 151.746 61.7549C164.039 59.67 176.069 55.9003 187.211 50.3075C199.147 44.3513 209.987 36.3124 219.355 26.8634C217.331 25.9313 215.117 25.542 212.962 25.0294C213.012 24.8175 213.064 24.6055 213.121 24.3936C215.863 24.2963 218.603 24.1838 221.347 24.1103ZM88.9802 24.2249C85.2161 24.7093 81.4628 26.5736 79.4209 29.8523C77.4443 33.0164 77.1442 37.0369 78.1314 40.5817C78.9708 43.6333 81.1975 46.2199 84.031 47.63C87.4124 49.3256 91.3527 49.6262 95.0581 49.0899C98.4939 48.5816 101.895 46.9315 103.932 44.0572C106.066 41.0899 106.559 37.1927 105.85 33.6739C105.231 30.5985 103.287 27.815 100.571 26.2124C97.1261 24.1362 92.9096 23.7231 88.9802 24.2249ZM90.335 27.3068C88.1996 27.668 86.4295 29.2684 85.6206 31.2343C84.5637 33.7561 84.4985 36.5871 84.8464 39.2646C85.1661 41.6544 86.2773 44.1632 88.5084 45.3397C91.3266 46.7779 95.2842 46.2762 97.2283 43.6441C98.8179 41.5484 99.1484 38.8104 99.118 36.2584C99.0636 33.7388 98.5635 31.0245 96.7782 29.117C95.1733 27.3825 92.5987 26.8569 90.335 27.3068ZM167.333 27.0797C165.146 28.7342 163.602 31.204 163.082 33.888C162.478 36.9656 162.865 40.3221 164.572 43.0039C166.281 45.729 169.149 47.5673 172.207 48.4735C176.475 49.743 181.183 49.4381 185.273 47.6841C185.319 46.4924 185.28 45.2986 185.297 44.1069C182.805 45.3202 180.002 46.0318 177.217 45.7679C175.194 45.5754 173.157 44.7255 171.859 43.1251C170.328 41.2846 169.852 38.8126 169.886 36.479C169.902 34.2859 170.378 31.9675 171.83 30.2481C173.005 28.8142 174.794 27.9967 176.61 27.7372C179.459 27.3176 182.338 28.0291 184.949 29.1365C184.949 27.9621 184.96 26.7899 184.939 25.6155C182.24 24.4714 179.287 23.9286 176.356 24.0475C173.148 24.1816 169.902 25.1159 167.333 27.0797ZM52.2087 24.8261C52.2152 32.7569 52.2087 40.6898 52.2152 48.6206C56.8448 48.5946 61.4766 48.6292 66.1062 48.6033C68.7439 48.5427 71.5404 47.8852 73.4996 46.0275C75.0936 44.5546 75.8155 42.2664 75.4372 40.147C75.161 38.2351 73.8976 36.5568 72.2493 35.5749C70.2878 34.3789 67.9459 34.0048 65.6778 33.9875C63.4576 33.9832 61.2396 33.9767 59.0215 33.9918C59.0172 31.9675 59.0172 29.941 59.0193 27.9167C63.6076 27.8886 68.1981 27.9167 72.7864 27.9015C72.782 26.8786 72.7864 25.8556 72.7864 24.8326C65.9257 24.811 59.0672 24.824 52.2087 24.8261ZM59.0237 45.5798C61.17 45.5689 63.3206 45.623 65.4669 45.5538C66.8803 45.476 68.0154 44.321 68.3547 43.0018C68.7265 41.5982 68.7048 40.0086 67.9959 38.7109C67.4174 37.6425 66.1932 37.0478 64.9993 37.0369C63.0053 37.011 61.0134 37.0369 59.0215 37.0261C59.0172 39.8766 59.015 42.7293 59.0215 45.5798H59.0237ZM109.608 24.824C109.608 32.7569 109.591 40.6898 109.617 48.6227C111.896 48.586 114.177 48.6422 116.458 48.5968C116.458 45.0629 116.456 41.529 116.458 37.9929C120.326 37.9842 124.195 37.9821 128.061 37.9929C128.061 41.5333 128.061 45.0737 128.061 48.6141C130.342 48.6098 132.626 48.6033 134.907 48.6184C134.907 40.6876 134.898 32.7591 134.913 24.8283C132.626 24.8218 130.338 24.8023 128.052 24.8391C128.061 28.0443 128.072 31.2473 128.048 34.4525C124.184 34.4373 120.32 34.446 116.458 34.4481C116.449 31.2386 116.458 28.0291 116.451 24.8218C114.168 24.8218 111.887 24.8153 109.606 24.8218L109.608 24.824ZM137.429 24.8283C141.026 31.0224 144.692 37.1754 148.271 43.3803C146.914 45.1169 145.573 46.8666 144.227 48.6098C146.173 48.6033 148.119 48.6314 150.063 48.6011C150.47 48.3719 150.585 47.8268 150.861 47.4657C155.378 39.9199 159.899 32.3762 164.411 24.8283C162.75 24.8153 161.09 24.8218 159.431 24.8283C157.002 28.8834 154.543 32.9213 152.123 36.9807C151.777 36.732 151.62 36.3232 151.416 35.9707C149.348 32.2573 147.215 28.5785 145.166 24.8521C142.587 24.7872 140.008 24.8305 137.429 24.8283Z" fill="white"/>
</g>
<defs>
<clipPath id="clip0_39_173">
<rect width="224" height="69" fill="white"/>
</clipPath>
</defs>
</svg>
