<svg width="11" height="8" viewBox="0 0 11 8" fill="none" xmlns="http://www.w3.org/2000/svg">
<g clip-path="url(#clip0_69_329)">
<path d="M11 1.5463C10.7046 1.80936 10.4078 2.07095 10.1142 2.33568C8.03914 4.20598 5.96477 6.07713 3.89019 7.94785C3.87232 7.96398 3.85295 7.97864 3.8269 8C2.55184 6.67613 1.27937 5.35498 0 4.0267C0.523112 3.54981 1.04127 3.07752 1.56805 2.59727C2.35939 3.41891 3.14449 4.23384 3.93841 5.05799C5.80655 3.37178 7.67124 1.68914 9.54282 0C9.70578 0.171322 9.86314 0.336571 10.0201 0.502029C10.3212 0.819541 10.622 1.13726 10.9231 1.45456C10.947 1.4797 10.9744 1.50169 11 1.52536V1.5463Z" fill="#FFD800"/>
</g>
<defs>
<clipPath id="clip0_69_329">
<rect width="11" height="8" fill="white"/>
</clipPath>
</defs>
</svg>
