<svg width="63" height="63" version="1.1" viewBox="0 0 63 63" xmlns="http://www.w3.org/2000/svg">
 <path d="m30.487 62.594c-3.8645 0-7.7271-0.0035-11.59-0.0106-2.8344-0.0053-4.9809-2.1293-4.9915-4.9401-0.0124-2.9817-0.0106-6.0126-0.0088-8.9432 0-1.8528 0.0017-3.7056 0-5.5583 0-0.671 0.1957-0.7785 0.3792-0.8278 0.0758-0.0193 0.1711-0.0317 0.2698-0.0317 0.2276 0 0.411 0.0582 0.4692 0.1128 0.1552 0.1479 0.2751 0.516 0.2769 0.8576 0.0194 3.5559 0.0176 7.1716 0.0176 10.669v3.3709c0 2.4727 1.4269 3.8905 3.9156 3.8905h22.451c2.5293 0 3.9209-1.4037 3.9209-3.9503v-34.873c0-1.2346 0.4304-1.2451 0.6861-1.2522h0.0317c0.224 0 0.6897 0 0.6915 1.2645v4.0032l0.0335-0.0335v7.4216h1.09c0.1358-0.0017 0.2698 0 0.4039 0 2.6933 0.0405 5.0955 1.9831 5.7111 4.6178 0.6173 2.6436-0.6279 5.3699-3.0302 6.6291-0.2381 0.125-0.4533 0.1884-0.6367 0.1884-0.2434 0-0.418-0.1127-0.5485-0.3522-0.09-0.1655-0.3299-0.6076 0.5168-1.0673 0.9841-0.5336 1.6826-1.2997 2.0759-2.2754 0.7249-1.7982 0.418-3.4907-0.8889-4.8908-0.896-0.9598-1.9807-1.4477-3.226-1.4477-0.381 0-0.7796 0.0476-1.1852 0.1392l-0.2752 0.0616v17.827l2.6086-0.6604 0.0477-0.2114c0.0405-0.1796 0.0829-0.3663 0.1287-0.56 0.1094-0.4685 0.2328-0.9986 0.3316-1.5252 0.0741-0.3998 0.2822-0.6129 0.7373-0.7608 0.1428-0.0458 0.2875-0.0898 0.4339-0.1356 0.5732-0.1744 1.1641-0.354 1.6703-0.6922 0.3633-0.243 0.6931-0.3628 1.0106-0.3628 0.3634 0 0.7514 0.155 1.2223 0.4879 0.6579 0.4649 1.0495 0.7273 1.4551 0.7273 0.5098 0 0.8343-0.3751 1.4798-1.1218 0.0741-0.0863 0.0988-0.1621 0.1182-0.2184 0.0053-0.0176 0.0124-0.0388 0.0229-0.0634l0.0653-0.1673-0.097-0.1515c-0.1146-0.1779-0.2293-0.3593-0.3457-0.5424-0.2734-0.4298-0.5574-0.8736-0.8484-1.3104-0.2187-0.3275-0.2328-0.6216-0.0494-1.0179 0.4004-0.8665 0.7867-1.7894 1.1483-2.7474 0.1534-0.4069 0.3492-0.5936 0.6967-0.6658 0.5291-0.1092 1.0653-0.2342 1.5838-0.354 0.2258-0.0528 0.4516-0.1056 0.6808-0.1567l0.2734-0.0634v-2.3758l-0.2769-0.0599c-0.2187-0.0476-0.4339-0.0969-0.6473-0.1444-0.4974-0.1127-0.9683-0.2184-1.4533-0.31-0.4798-0.0898-0.7355-0.3276-0.9066-0.8471-0.2875-0.87-0.6315-1.7013-1.023-2.471-0.2646-0.523-0.2611-0.8541 0.0123-1.2204 0.1358-0.1815 0.2522-0.3717 0.3651-0.5548 0.0494-0.081 0.0988-0.162 0.1499-0.2413 0.8008-1.2487 0.7779-1.4318-0.291-2.4604l-0.0282-0.0281c-0.1517-0.1462-0.3633-0.3153-0.6438-0.3153-0.1728 0-0.3457 0.0634-0.5309 0.1955-0.2399 0.1708-0.5009 0.3311-0.7513 0.4878-0.2452 0.1515-0.4974 0.3083-0.7408 0.4773-0.1888 0.1321-0.3634 0.1938-0.5468 0.1938-0.1817 0-0.381-0.0582-0.6314-0.1814-0.8484-0.421-1.6792-0.7662-2.4711-1.0268-0.5503-0.1814-0.7972-0.4456-0.8819-0.9458-0.0846-0.4984-0.1975-0.9897-0.2981-1.4248-0.0405-0.1743-0.0793-0.3416-0.1128-0.4966l-0.0459-0.2096-2.554-0.6868 0.4939-0.4791c0.3686-0.3575 0.7902-0.5178 1.3722-0.5178 0.2822 0 0.5662 0.0335 0.8696 0.0705 0.1975 0.0246 0.4039 0.0475 0.6067 0.0616 0.0988 0.0423 0.3316 0.3258 0.4198 0.5847 0.1252 0.3664 0.2046 0.7468 0.2875 1.1501 0.0635 0.3082 0.1287 0.627 0.2187 0.9387 0.1041 0.3681 0.4603 0.634 0.6085 0.7309 0.1481 0.0968 0.3087 0.1444 0.4498 0.1849 0.1058 0.0317 0.2081 0.0599 0.2628 0.1004 0.3915 0.2853 0.776 0.4244 1.1764 0.4244 0.5873 0 1.1024-0.2994 1.5715-0.6234 0.7108-0.4896 1.1624-0.7908 1.4499-0.7908 0.3069 0 0.6931 0.3875 1.3969 1.0884l0.3845 0.3839c0.3298 0.3276 0.6596 0.657 0.9859 0.9881 0.5309 0.5371 0.5486 0.7027 0.1341 1.3613-0.0194 0.0318-0.0406 0.0617-0.06 0.0916-0.0282 0.0441-0.0582 0.0881-0.0847 0.1321-0.1023 0.1673-0.2292 0.3364-0.3615 0.516-0.3316 0.4456-0.6756 0.9053-0.7161 1.4407-0.0441 0.5671 0.2504 1.1113 0.5344 1.6361 0.09 0.1638 0.1729 0.3206 0.2452 0.472 0.1181 0.2501 0.4021 0.4791 0.6914 0.5583 0.4074 0.111 0.8237 0.2025 1.2258 0.2924 0.2787 0.0616 0.5574 0.1232 0.8343 0.1919 0.5908 0.1462 0.7372 0.3223 0.7425 0.9 0.0053 0.6058 0.0053 1.2117 0.0035 1.8193v1.3438c0.0018 0.5142-0.1957 0.7661-0.6808 0.8682-0.2451 0.0511-0.4885 0.111-0.7319 0.1691-0.3669 0.0881-0.7461 0.1796-1.1183 0.2413-0.4039 0.0669-0.9577 0.2395-1.0988 0.9827-0.0406 0.2166-0.1129 0.4051-0.2028 0.5301-0.6033 0.8383-0.5345 1.6661 0.2116 2.5326 0.1764 0.2043 0.3193 0.4456 0.4727 0.7027 0.0723 0.1215 0.1446 0.2413 0.2205 0.3593 0.2434 0.3786 0.2152 0.6886-0.0917 1.0021-0.8608 0.8806-1.6509 1.6749-2.4164 2.4251-0.1676 0.1638-0.3351 0.2448-0.5098 0.2448-0.1358 0-0.2857-0.0493-0.4427-0.1461-0.0917-0.0564-0.1834-0.1163-0.2751-0.1762l-0.164-0.1056c-1.0001-0.6393-1.4957-0.9564-2.1042-0.9564-0.5186 0-1.0336 0.2308-1.9702 0.6482-0.2875 0.1285-0.5044 0.4455-0.5697 0.6939-0.1146 0.4314-0.2063 0.8735-0.2945 1.2997-0.0441 0.2149-0.0882 0.428-0.1358 0.6428-0.1606 0.7239-0.3299 0.8613-1.0654 0.8665-0.1005 0-0.2028 0.0053-0.3033 0.0088-0.1023 0.0036-0.2029 0.0089-0.3052 0.0089-0.1287 0-0.231-0.0071-0.3227-0.0212-0.3387-0.0546-0.6756-0.1391-1.0336-0.2289-0.157-0.0405-0.3157-0.0793-0.4798-0.118l-0.4339-0.1022v1.4547c0.0018 0.7891 0.0036 1.6045-0.0035 2.4252-0.0247 2.8496-2.173 5.0035-4.9932 5.0088-3.8398 7e-3 -7.6796 0.0105-11.519 0.0105l-0.0088-0.0017z" fill="#797979"/>
 <path d="m14.77 39.528c-8.1345 0-14.759-6.6114-14.77-14.743-0.010583-8.1595 6.6406-14.801 14.812-14.792 8.1417 0.01057 14.774 6.6379 14.766 14.769-7e-3 8.1966-6.7553 14.854-14.81 14.764l0.0017 0.0017zm9.7079-6.6554c4.2577-4.9648 4.1202-12.941-1.464-17.735-5.376-4.616-13.578-3.8605-18.035 1.6133-4.5611 5.604-3.0302 12.844 0.15344 16.046 0.05292-0.0722 0.10583-0.1409 0.15345-0.2148 1.5028-2.3864 3.674-3.5805 6.4889-3.5999 2.046-0.0141 4.0937-0.0616 6.1362 0.0229 0.9701 0.0405 1.9701 0.2378 2.8838 0.5671 1.628 0.5847 2.8062 1.7665 3.6828 3.3005zm-1.6545 1.5727c-0.6684-1.9267-2.5663-3.3128-4.6793-3.3445-2.2188-0.0317-4.4412-0.0458-6.6582 0.0035-1.8926 0.0423-3.3565 0.9176-4.3601 2.5291-0.1658 0.2659-0.27515 0.5653-0.39862 0.826 4.8539 4.0507 12.128 3.554 16.096-0.0141z" fill="#FFD800"/>
 <g fill="#797979">
  <path d="m47.354 18.29c-2.0671 0-4.1325-0.0018-6.1997-7e-3 -1.1076-0.0018-2.1271-0.4016-2.8697-1.1254-0.739-0.7186-1.1447-1.6978-1.1411-2.7563 7e-3 -2.1874 1.7444-3.8411 4.0443-3.8499 0.7973-0.0018 1.5962-0.0035 2.3935-0.0035h7.5895c0.7831 0 1.5663 0 2.3494 0.0035 2.2982 7e-3 4.0373 1.6625 4.0443 3.8499 0.0036 1.0602-0.4021 2.0395-1.1394 2.7563-0.7425 0.722-1.762 1.1218-2.8714 1.1236-2.0672 0.0053-4.1325 7e-3 -6.1997 7e-3v0.0018zm-6.0427-6.3314c-0.8519 0-1.5962 0.2782-2.0954 0.7802-0.4409 0.4438-0.6702 1.032-0.6649 1.7013 0.0106 1.4371 1.1341 2.441 2.7303 2.441 2.0248 0 4.0479 0.0017 6.0727 0.0017s4.0479 0 6.0727-0.0017c1.5962 0 2.7198-1.0057 2.7286-2.4428 0.0053-0.6675-0.2258-1.254-0.6667-1.6978-0.4992-0.5037-1.2453-0.7802-2.0972-0.7819h-2.3828-7.3074-2.3917 0.0018z"/>
  <path d="m46.289 7.7333c-0.4127-0.00528-0.6773-0.30644-0.6914-0.78548-0.0088-0.34872-7e-3 -0.70447-0.0053-1.0497 0.0018-0.32406 0.0036-0.65868-0.0035-0.99155-0.0423-1.9866-1.5468-3.4871-3.5011-3.4906-3.8768-0.00705-7.7536-0.01057-11.63-0.01057s-7.7747 0.00352-11.664 0.01057c-1.9507 0.00352-3.4499 1.5111-3.487 3.5047-0.0052 0.32758-0.0052 0.6534-0.0035 0.98098 0 0.32758 0.0035 0.66572-0.0035 0.99506-0.0106 0.52307-0.2716 0.8348-0.7002 0.8348-0.4357 0-0.6967-0.31173-0.6985-0.83127 0-0.21663-0.0053-0.43502-0.0088-0.65164-0.0124-0.6622-0.0265-1.3473 0.067-1.9919 0.3669-2.5326 2.3564-4.2391 4.9492-4.2497 1.5592-0.0052835 3.1166-0.0070449 4.6758-0.0070449 1.1482 0 2.2946 3.7627e-7 3.4429 0.0017616 1.1482 0 2.2964 0.0017609 3.4429 0.0017609h6.8946 4.3724c3.1907 0.0017612 5.2561 2.0694 5.2614 5.2642 0 0.15498 0 0.30996 0.0035 0.46495 0.0035 0.40683 7e-3 0.82599-0.0088 1.2346-0.0159 0.46495-0.2893 0.76435-0.6967 0.76435h-0.0106l0.0035 0.00176z"/>
  <path d="m39.805 45.715c-0.0494 0-0.097 0-0.1464-0.0017-0.0547 0-0.1094-0.0036-0.164-0.0036h-18.091c-0.0547 0-0.1094 0-0.1641 0.0036-0.0494 0-0.097 0.0017-0.1464 0.0017-0.0917 0-0.1587-0.0053-0.2169-0.0158-0.5609-0.1057-0.6244-0.4456-0.6244-0.6922 0-0.2465 0.0653-0.5865 0.6244-0.6921 0.0582-0.0106 0.1235-0.0159 0.2152-0.0159 0.0494 0 0.0987 0 0.1464 0.0018 0.0546 0 0.1093 0.0035 0.164 0.0035h18.093c0.0564 0 0.1111 0 0.1658-0.0035 0.0493 0 0.0987-0.0018 0.1463-0.0018 0.0918 0 0.157 0.0053 0.2152 0.0159 0.5591 0.1039 0.6244 0.4438 0.6244 0.6921 0 0.2466-0.0653 0.5865-0.6261 0.6922-0.0582 0.0105-0.1253 0.0158-0.217 0.0158h0.0018z"/>
  <path d="m24.28 54.151c-1.0495 0-2.1007 0-3.1501-0.0035-0.3175 0-0.5786-0.0933-0.732-0.2589-0.1182-0.1268-0.1711-0.2923-0.1552-0.4896 0.0406-0.5354 0.515-0.6499 0.9066-0.6516 0.8695-0.0018 1.7408-0.0035 2.6104-0.0035h7.8506c1.3104 0 2.6192 0 3.9297 0.0035 0.3174 0 0.5785 0.0933 0.7319 0.2606 0.1182 0.1268 0.1694 0.2924 0.1552 0.4879-0.0405 0.5371-0.5167 0.6516-0.9065 0.6516-1.0601 0.0018-2.1201 0.0035-3.1801 0.0035h-8.0623 0.0018z"/>
  <path d="m22.813 49.931c-0.5362 0-1.0706 0-1.6068-0.0018-0.4392 0-0.9648-0.125-0.9648-0.7009 0-0.5777 0.5239-0.701 0.963-0.701 1.3123-0.0017 2.6245-0.0035 3.9368-0.0035 1.3122 0 2.6562 0 3.9844 0.0035 0.4392 0 0.9648 0.1233 0.9648 0.701s-0.5239 0.7009-0.9648 0.7027c-0.5415 0.0018-1.0812 0.0018-1.6227 0.0018h-4.6917l0.0018-0.0018z"/>
  <path d="m28.658 5.6305c-0.3916 0-0.7831 0-1.1764-0.00352-0.3369-0.00353-0.8996-0.09687-0.8996-0.70095 0-0.62874 0.6279-0.69919 0.8978-0.70095 0.9895-0.00352 1.9807-0.00528 2.9702-0.00528s1.979 0 2.9684 0.00528c0.2699 0 0.8996 0.07045 0.8996 0.69919 0 0.62698-0.6297 0.69918-0.8996 0.70095-0.395 0.00352-0.7884 0.00352-1.1835 0.00352h-3.5769v0.00176z"/>
  <path d="m8.221 45.588c-0.41626-0.0017-0.65789-0.2518-0.66142-0.6833-0.00176-0.2448 0.07761-0.4614 0.22576-0.6111 0.12523-0.1268 0.29103-0.1937 0.47622-0.1937 0.37922 0.0035 0.6967 0.3205 0.70022 0.6956 0.00177 0.2114-0.08466 0.4192-0.23634 0.5724-0.1411 0.1409-0.31925 0.2201-0.50268 0.2201h-0.00353 0.00177z"/>
  <path d="m8.1927 49.808c-0.41626-0.0159-0.64026-0.2695-0.6332-0.7151 0.00882-0.4473 0.3016-0.7731 0.69669-0.7731h0.03704c0.37216 0.0176 0.67906 0.3487 0.66847 0.7221-0.01234 0.4226-0.3457 0.7661-0.74255 0.7661h-0.02645z"/>
  <path d="m8.191 54.026c-0.41625-0.0176-0.64025-0.2712-0.63143-0.7168 0.00882-0.4473 0.3016-0.7714 0.69669-0.7714h0.0388c0.37216 0.0194 0.6773 0.3505 0.66671 0.7238-0.01411 0.421-0.34746 0.7644-0.74255 0.7644h-0.02822z"/>
 </g>
 <path d="m14.819 16.324c2.9085 0.0124 5.2702 2.4023 5.2526 5.317-0.0194 2.9007-2.4252 5.2554-5.3425 5.2272-2.875-0.0264-5.2243-2.4058-5.219-5.2853 0.00529-2.9059 2.3934-5.2712 5.3089-5.2589zm3.1378 5.2519c-0.0088-1.7225-1.4287-3.1367-3.1536-3.142-1.7532-7e-3 -3.1889 1.4301-3.1801 3.1807 0.0088 1.7207 1.4304 3.1367 3.1536 3.1437 1.7514 7e-3 3.1907-1.4336 3.1801-3.1824z" fill="#FFD800"/>
</svg>
