<svg width="81" height="67" version="1.1" viewBox="0 0 81 67" xmlns="http://www.w3.org/2000/svg">
 <g fill="#797979">
  <path d="m40.996 50.447c-0.0494 0-0.097 0-0.1464-0.0017-0.0547 0-0.1093-0.0036-0.164-0.0036h-11.036c-0.0547 0-0.1094 0-0.164 0.0036-0.0494 0-0.097 0.0017-0.1464 0.0017-0.0917 0-0.1588-0.0053-0.217-0.0158-0.5608-0.1057-0.6243-0.4456-0.6243-0.6922 0-0.2465 0.0652-0.5865 0.6243-0.6921 0.0582-0.0106 0.1235-0.0159 0.2152-0.0159 0.0494 0 0.0988 0 0.1464 0.0018 0.0547 0 0.1094 0.0035 0.164 0.0035h11.038c0.0564 0 0.1111 0 0.1658-0.0035 0.0494 0 0.0988-0.0018 0.1464-0.0018 0.0917 0 0.1569 0.0053 0.2151 0.0159 0.5592 0.1039 0.6244 0.4438 0.6244 0.6921 0 0.2466-0.0652 0.5865-0.6261 0.6922-0.0582 0.0105-0.1252 0.0158-0.217 0.0158h0.0018z"/>
  <path d="m47.714 55.061c-0.0494 0-0.097 0-0.1464-0.0018-0.0547 0-0.1093-0.0035-0.164-0.0035h-16.327c-0.0547 0-0.1094 0-0.164 0.0035-0.0494 0-0.0971 0.0018-0.1465 0.0018-0.0917 0-0.1587-0.0053-0.2169-0.0159-0.5609-0.1056-0.6244-0.4456-0.6244-0.6921 0-0.2466 0.0653-0.5865 0.6244-0.6922 0.0582-0.0105 0.1235-0.0158 0.2152-0.0158 0.0494 0 0.0988 0 0.1464 0.0017 0.0547 0 0.1093 0.0036 0.164 0.0036h16.329c0.0564 0 0.1111 0 0.1658-0.0036 0.0494 0 0.0988-0.0017 0.1464-0.0017 0.0917 0 0.157 0.0053 0.2152 0.0158 0.5591 0.1039 0.6243 0.4439 0.6243 0.6922 0 0.2465-0.0652 0.5865-0.6261 0.6921-0.0582 0.0106-0.1252 0.0159-0.2169 0.0159h0.0017z"/>
  <path d="m45.978 66.07c-0.4074 0-0.8219-0.0123-1.224-0.0229-0.3881-0.0105-0.7902-0.0229-1.1712-0.0229h-20.446c-0.1446 0-0.2892 0-0.4338 0.0035-0.1429 0-0.2858 0.0036-0.4286 0.0036-0.9207 0-1.8891-0.0511-2.7286-0.6728-1.3017-0.9634-1.6262-2.3917-1.023-4.498l5.2596-18.353c0.6261-2.1821 1.6579-3.2177 3.3494-3.3533 0.3157-0.0247 0.6544-0.037 1.0689-0.037 0.2928 0 0.5855 0.0053 0.8766 0.0123 0.2928 0.0053 0.5855 0.0123 0.8748 0.0123h23.264c0.03 0 0.0494-0.0017 0.067-0.0017s0.0388 0 0.0582 0.0017c0.06 0 0.1076 0.0036 0.1517 0.0124 1.4233 0.1479 2.5134 0.9105 3.0037 2.094 0.4797 1.1571 0.1411 2.279-0.2169 3.4678-0.0512 0.169-0.1023 0.3381-0.15 0.5072l-1.829 6.3842c-0.3722 1.3016-0.7425 2.6277-1.1006 3.9116-0.7143 2.5661-1.4534 5.2184-2.2559 7.7985-0.7108 2.2878-2.4993 2.7562-4.965 2.7562l-0.0018-0.0035zm-18.052-25.613c-0.6579 0-1.1306 0.0863-1.4886 0.2695-0.9824 0.5055-1.2911 1.77-1.538 2.7879-0.0547 0.2255-0.1059 0.4403-0.1623 0.6358l-4.9403 17.238c-0.2858 0.9951-0.2082 1.8704 0.2187 2.4621 0.358 0.4985 0.9348 0.7697 1.7108 0.8067 0.9419 0.044 1.9755 0.0651 3.1572 0.0651 1.0547 0 2.1289-0.0158 3.166-0.0334 1.0318-0.0159 2.1006-0.0335 3.1448-0.0335h13.205c0.3404 0 0.6826 7e-3 1.0248 0.0141 0.3474 7e-3 0.6949 0.0141 1.0424 0.0141 0.3898 0 0.732-0.0088 1.0406-0.0282 1.665-0.1022 2.0125-1.3297 2.3494-2.515l5.0426-17.596c0.2752-0.9598 0.6896-2.4093 0.0688-3.2934-0.3122-0.4438-0.8519-0.6956-1.6033-0.7467h-24.012c-0.1922 0-0.4074-0.0106-0.6349-0.0229-0.2576-0.0123-0.5239-0.0264-0.792-0.0264v0.0017z"/>
  <path d="m11.897 17.11c-0.321 0-0.5644-0.2747-0.6403-0.5459-0.0406-0.1444-0.0917-0.5055 0.2981-0.7397 2.6615-1.6027 4.0832-5.0106 4.8063-7.5889 0.0794-0.28355 0.388-0.51426 0.6896-0.51426 0.1111 0 0.2135 0.0317 0.3016 0.09686 1.8608 1.3455 5.4942 3.6016 8.9142 3.6016 1.5962 0 2.9667-0.4984 4.0726-1.4812 0.1428-0.12681 0.3421-0.20254 0.5361-0.20254 0.1235 0 0.2999 0.0317 0.4286 0.18493 1.3493 1.5868 2.3335 3.274 2.9262 5.0106 0.0687 0.2025 0.0494 0.3857-0.0547 0.5336-0.1235 0.1726-0.3616 0.2835-0.605 0.2835-0.1517 0-0.5203-0.0457-0.6649-0.4719-0.4339-1.2716-1.15-2.5784-2.0707-3.776l-0.1023-0.1321-0.1376 0.0951c-1.2241 0.8418-2.6686 1.2681-4.293 1.2681-3.48 0-6.9476-1.9356-8.7043-3.0892l-0.1905-0.12504-0.0723 0.21662c-0.8113 2.4093-2.3529 5.627-5.092 7.2754-0.1147 0.0687-0.2293 0.104-0.344 0.104l-0.0017-0.0036z"/>
  <path d="m22.545 32.392c-1.6403 0-3.2278-0.4138-4.7217-1.231-2.5592-1.4002-4.5593-3.8711-5.6335-6.9567-0.0829-0.2395-0.1499-0.4843-0.2152-0.7203-0.1375-0.5019-0.2804-1.0215-0.5838-1.5005l-0.0282-0.044c-0.3863-0.6129-0.7866-1.2452-0.9348-1.9303-0.1975-0.9193 0.0882-1.9021 0.7478-2.5643l0.0653-0.0669-0.0176-0.0916c-0.6033-3.126-1.3546-7.0165 0.2716-10.143 0.4074-0.78196 0.963-1.4847 1.501-2.1645 0.2222-0.28002 0.4515-0.57062 0.6702-0.86473 1.1553-1.5586 1.9948-2.4005 3.644-2.9729 2.1536-0.74674 4.3265-1.1412 6.2843-1.1412 1.0177 0 1.9913 0.10567 2.8944 0.31173 8.1416 1.8686 8.0411 12.978 7.6195 17.668l-0.0106 0.111 0.0971 0.0564c0.6508 0.3804 0.9612 1.3701 0.6772 2.1609-0.1516 0.4227-0.4021 0.819-0.6455 1.2011-0.2293 0.3611-0.4656 0.7327-0.6244 1.1342-0.1622 0.4104-0.2839 0.8384-0.4021 1.2522-0.1376 0.4861-0.2805 0.988-0.4886 1.4583-1.8696 4.2074-5.9563 7.0341-10.166 7.0341v0.0035zm0.8977-31.021c-2.6209 0-5.182 0.58295-6.854 1.5586-0.8396 0.48961-1.434 1.3367-2.009 2.1539-0.201 0.28707-0.3915 0.55653-0.5908 0.81014-0.5715 0.72913-1.2153 1.5868-1.598 2.5625-1.0107 2.5713-0.411 5.6182 0.1199 8.3057 0.0476 0.2466 0.097 0.4879 0.1411 0.7274 0.0477 0.2483-0.0229 0.4772-0.201 0.6446l-0.0142 0.0141c-0.0441 0.0528-0.0987 0.1003-0.1622 0.1426-1.1288 0.7415-0.3246 2.0359 0.2628 2.9817 0.2257 0.3628 0.4392 0.7062 0.5238 0.9686 0.0723 0.2184 0.1411 0.4368 0.2099 0.6517 0.3951 1.2363 0.7673 2.4022 1.501 3.547 1.7744 2.7685 4.5841 4.4927 7.5137 4.616 0.1182 0.0053 0.2346 7e-3 0.351 7e-3 2.845 0 5.6458-1.4811 7.4925-3.9608 0.9225-1.2381 1.6033-2.6682 2.0213-4.2497l0.0053-0.0194c0.1429-0.5389 0.2364-0.8929 0.5027-1.3403 0.0106-0.0176 1.0089-1.7752 0.8625-2.0324l-0.0512-0.0898-0.1234-0.0053h-0.0124c-0.0141 0.0035-0.0282 0.0035-0.0423 0.0035-0.1464 0-0.3175-0.0898-0.4462-0.2324-0.1235-0.1374-0.1888-0.3012-0.1747-0.435 0.4339-4.0455 0.2029-7.6805-0.6896-10.807-1.12-3.9274-3.6069-6.1624-7.1962-6.4653-0.4304-0.03698-0.8819-0.05459-1.344-0.05459l0.0017-0.00353z"/>
  <path d="m11.332 54.993c-0.2152 0-0.4233-0.0827-0.5591-0.2219-0.1146-0.118-0.1711-0.2712-0.1658-0.442l0.2522-7.7087c0.0141-0.4526 0.3793-0.6587 0.7126-0.6587 0.1976 0 0.381 0.0705 0.4992 0.1938 0.1111 0.1144 0.164 0.2677 0.1569 0.4543l-0.2257 6.8845 4.4024-0.8383c0.0511-0.0106 0.1023-0.0141 0.1499-0.0141 0.4215 0 0.6826 0.361 0.7161 0.7009 0.0123 0.1233 0.0123 0.5337-0.4745 0.6252l-5.3107 1.0109c-0.0512 0.0106-0.1023 0.0141-0.1552 0.0141h0.0017z"/>
  <path d="m5.5189 66.062c-0.79194 0-1.8132-0.0476-2.6757-0.4174-2.8432-1.2205-2.8432-3.9926-2.8432-6.6731 0-2.8919 0.084662-5.8172 0.1658-8.6474 0.033512-1.1624 0.06703-2.3247 0.095251-3.4871l0.005286-0.2343c0.049386-2.1257 0.097009-4.1352 1.1482-6.0197 1.2417-2.2261 3.4517-3.8393 6.0639-4.4223 0.78311-0.1743 1.5874-0.3399 2.367-0.5001 1.568-0.3223 3.1889-0.6552 4.7481-1.0902 0.9578-0.2677 1.1588-0.6622 1.5222-1.5287l1.1658-2.7844c0.12-0.2871 0.3863-0.4597 0.7091-0.4597 0.254 0 0.4921 0.1092 0.6067 0.28 0.0935 0.1392 0.0988 0.3082 0.0194 0.5002-0.1464 0.3505-0.2875 0.7555-0.4374 1.1835-0.5556 1.5939-1.247 3.5787-2.7303 4.0155-1.4534 0.428-2.9896 0.7362-4.473 1.0338-0.739 0.1479-1.5045 0.3012-2.247 0.4685-2.1977 0.4913-4.9016 1.4283-6.3161 4.3466-0.76019 1.5656-0.77253 3.3268-0.78664 5.0299-0.00176 0.324-0.00529 0.6463-0.01235 0.9651-0.02469 1.0497-0.05468 2.0993-0.0829 3.149-0.07761 2.7721-0.15697 5.6393-0.15697 8.4589 0 0.2307-0.00882 0.4702-0.01764 0.7221-0.02999 0.8876-0.06173 1.8052 0.2487 2.6012 0.50973 1.3016 1.6968 2.0712 3.2577 2.1099 0.51855 0.0124 1.0847 0.0194 1.7338 0.0194 0.57676 0 1.1553-0.0053 1.7338-0.0106 0.57676-0.0052 1.1518-0.0105 1.7268-0.0105h11.509c0.4533 0 0.6544 0.3434 0.6544 0.6833s-0.2028 0.6833-0.6544 0.6833h-14.086c-0.30866 0-0.61909 0.0088-0.94891 0.0177-0.32983 0.0088-0.67201 0.0193-1.0089 0.0193l-0.00352-0.0017z"/>
  <path d="m42.572 40.542c-0.1587 0-0.3034-0.0757-0.4286-0.2236-2.1659-2.5766-5.4095-3.1842-8.5473-3.7707-0.6914-0.1303-1.4057-0.2642-2.0883-0.4156-0.134-0.03-0.2681-0.0582-0.4004-0.0863-1.187-0.2519-2.2118-0.4685-2.7762-1.6749-0.3845-0.8225-0.7319-1.6855-1.0671-2.5203-0.171-0.4262-0.3421-0.8506-0.5185-1.2715-0.0811-0.1938-0.0741-0.3611 0.0194-0.502 0.1129-0.169 0.351-0.28 0.605-0.28 0.3245 0 0.5908 0.1726 0.7108 0.4597l0.7425 1.7752c0.0723 0.1726 0.1429 0.3893 0.217 0.6164 0.1658 0.5108 0.3527 1.0902 0.6543 1.4424 0.5309 0.62 1.8132 0.7926 2.8432 0.9299 0.3387 0.0458 0.6297 0.0846 0.8484 0.1321 0.4956 0.111 0.9948 0.2131 1.4781 0.3135 3.0989 0.6393 6.0268 1.2452 8.2298 3.864 0.1869 0.2237 0.224 0.502 0.1005 0.7662-0.1235 0.2624-0.3774 0.4473-0.6208 0.4473l-0.0018-0.0018z"/>
 </g>
 <path d="m64.348 48.767c-0.757 0-1.326-0.2196-1.7392-0.6725-0.6106-0.6695-0.7663-1.755-0.902-2.7131-0.0416-0.2948-0.0817-0.5742-0.1326-0.8199-0.0616-0.3025 0.0062-0.5942 0.1928-0.8214 0.1989-0.2426 0.518-0.3916 0.8372-0.3916 0.4471 0 0.7832 0.2764 0.8742 0.7232 0.0524 0.2518 0.0894 0.5266 0.128 0.8168 0.0802 0.5927 0.1619 1.1992 0.3716 1.6383 0.0956 0.1996 0.3022 0.2917 0.6522 0.2917 0.3299 0 0.7138-0.0844 1.053-0.1581 0.1881-0.0415 0.3624-0.0798 0.5119-0.0998 0.1558-0.0215 0.3284-0.0322 0.5104-0.0445 0.6676-0.0446 1.4231-0.0937 1.565-0.648 0.1079-0.4222 0.0046-1.0701-0.0864-1.6413-0.0463-0.2856-0.0879-0.5558-0.1064-0.7938-0.0262-0.347 0.2035-0.7401 0.5104-0.8752 1.44-0.6311 2.6766-1.4464 3.7821-2.4904 0.1881-0.1781 0.4317-0.2749 0.6861-0.2749 0.165 0 0.3346 0.0415 0.4903 0.1198 0.2113 0.1075 0.4441 0.2518 0.6908 0.4053 0.498 0.3087 1.0608 0.6587 1.4878 0.7155 0.0201 0.0031 0.0417 0.0046 0.0602 0.0046 0.4409 0 0.7817-0.6832 1.0546-1.2329 0.0894-0.1796 0.1696-0.3393 0.2482-0.4729 0.0771-0.129 0.1804-0.2748 0.2899-0.4299 0.3762-0.5297 0.8449-1.1884 0.5659-1.5845-0.2452-0.3486-0.8249-0.671-1.3353-0.9551-0.2559-0.1428-0.4965-0.2748-0.6907-0.4084-0.3809-0.2595-0.5489-0.6802-0.4394-1.0947 0.3885-1.4571 0.5134-2.9265 0.3839-4.4911-0.0293-0.3439 0.1989-0.7354 0.5072-0.8752 0.2267-0.1028 0.4888-0.198 0.7663-0.2978 0.5474-0.1981 1.1672-0.4223 1.5187-0.7247 0.4071-0.3501 0.0663-1.0794-0.2081-1.666-0.0756-0.1612-0.1449-0.3086-0.1943-0.4391-0.0586-0.152-0.1125-0.3378-0.165-0.5174-0.1865-0.6357-0.4178-1.4264-0.9467-1.4264-0.4687 0.0061-1.0407 0.2303-1.5958 0.4483-0.2713 0.106-0.5288 0.2073-0.7678 0.2795-0.0863 0.0261-0.1758 0.0399-0.2636 0.0399-0.313 0-0.6199-0.1704-0.8404-0.4668-0.8618-1.1592-1.9226-2.1603-3.1515-2.9786-0.3793-0.2534-0.5489-0.6726-0.4409-1.0948 0.0601-0.238 0.1511-0.4975 0.2467-0.7708 0.1881-0.5404 0.4008-1.1515 0.3669-1.5922-0.0401-0.5128-0.868-0.7093-1.5326-0.8659-0.1912-0.0446-0.37-0.0876-0.518-0.1352-0.1265-0.0414-0.2776-0.1028-0.4379-0.1673-0.3839-0.1566-0.8634-0.3532-1.2319-0.3532-0.1773 0-0.3069 0.0461-0.3948 0.1413-0.2867 0.3101-0.4748 0.9504-0.6413 1.5139-0.0818 0.2779-0.1589 0.5389-0.2452 0.757-0.1727 0.436-0.515 0.6955-0.9159 0.6955h-0.0323c-0.1681-0.0061-0.3331-0.0092-0.4965-0.0092-1.3723 0-2.6766 0.2027-3.9888 0.6187-0.0878 0.0277-0.1773 0.0415-0.2667 0.0415-0.3068 0-0.6121-0.1704-0.8372-0.4668-0.1341-0.175-0.2775-0.4053-0.4286-0.6494-0.3207-0.5144-0.6846-1.0978-1.0284-1.2928-0.0648-0.0369-0.1357-0.0538-0.2175-0.0538-0.407 0-0.9636 0.4315-1.3706 0.7478-0.148 0.1151-0.2884 0.2241-0.4102 0.304-0.1326 0.0875-0.2883 0.175-0.4533 0.2671-0.5843 0.3255-1.2412 0.6925-1.1348 1.1792 0.0972 0.4438 0.4456 0.9474 0.7833 1.4341 0.165 0.2395 0.3222 0.4652 0.4471 0.6817 0.2143 0.3731 0.1604 0.823-0.1434 1.1731-0.9682 1.1193-1.7222 2.3829-2.2418 3.7556-0.1634 0.4314-0.5181 0.6986-0.9266 0.6986h-0.0185c-0.2514-0.0062-0.5289-0.0323-0.8218-0.0615-0.3454-0.0337-0.7031-0.0675-1.0315-0.0675-0.2637 0-0.4765 0.0215-0.6492 0.0675-0.4687 0.1244-0.4764 1.0226-0.481 1.6798 0 0.1873-0.0031 0.3608-0.0154 0.5005-0.0139 0.1628-0.0417 0.3363-0.071 0.519-0.1279 0.7984-0.1803 1.3819 0.3177 1.6214 0.407 0.195 1.0531 0.2395 1.6235 0.2794 0.293 0.02 0.5659 0.0399 0.808 0.0753 0.4856 0.0737 0.7755 0.4299 0.7385 0.9104-0.037 0.4929-0.4379 1.0011-1.0438 1.0011-0.054 0-0.1095-0.0046-0.1635-0.0122-0.2436-0.0369-0.5196-0.0615-0.8141-0.086-0.976-0.086-2.0784-0.1827-2.7737-0.7769-0.9436-0.8077-0.7817-2.0744-0.6368-3.1906 0.0277-0.2196 0.0555-0.4284 0.0725-0.6249 0.0154-0.1889 0.0262-0.3977 0.0354-0.5804 0.0509-1.0702 0.1157-2.4029 1.2242-3.0063 0.4117-0.2242 0.9329-0.3271 1.6421-0.3271 0.407 0 0.8156 0.0338 1.2103 0.066l0.1943 0.0154c0.5088-1.1638 1.1348-2.2156 1.9119-3.2121l-0.0971-0.1489c-0.532-0.8045-1.1364-1.7181-1.1441-2.6102-0.0123-1.2713 1.1317-1.9684 2.0522-2.5288 0.165-0.0998 0.3346-0.2042 0.4872-0.304 0.1635-0.1075 0.3331-0.2303 0.5119-0.3593 0.7231-0.519 1.5388-1.107 2.4377-1.107 0.2636 0 0.5227 0.0522 0.7709 0.1535 0.8403 0.347 1.4724 1.2928 2.029 2.1266l0.0571 0.0844c1.1903-0.3178 2.4238-0.4852 3.668-0.4975l0.0417-0.1259c0.2929-0.8997 0.6259-1.9208 1.2797-2.4996 0.3854-0.3424 0.8387-0.5082 1.383-0.5082 0.643 0 1.3121 0.2395 1.9026 0.4514l0.017 0.0061c0.1727 0.0614 0.3423 0.1229 0.5042 0.1751 0.1896 0.0614 0.3978 0.1182 0.6183 0.1781 1.0638 0.2917 2.3867 0.6556 2.7814 1.8225 0.3007 0.8859-0.0524 1.9899-0.3638 2.9618l-0.0478 0.1474c0.9975 0.737 1.8733 1.5707 2.6735 2.5426l0.1881-0.0706c0.7262-0.2718 1.548-0.5789 2.3004-0.5789 0.1881 0 0.3685 0.02 0.532 0.0584 1.2226 0.2902 1.6467 1.5477 1.9874 2.558 0.0663 0.195 0.128 0.3792 0.1943 0.5527 0.0709 0.1858 0.1557 0.3854 0.239 0.5773 0.4255 0.9919 0.9544 2.2264 0.2528 3.2566-0.5119 0.7524-1.5434 1.1439-2.4546 1.4894 0 0-0.1557 0.0598-0.2174 0.0829 0.0494 1.2329-0.0586 2.4704-0.3191 3.6803l0.1079 0.0645c0.865 0.5144 1.8471 1.0978 2.228 1.9254 0.5288 1.1485-0.165 2.2202-0.7771 3.1645-0.1157 0.1766-0.2236 0.3439-0.3207 0.5082-0.0956 0.1612-0.1912 0.3347-0.2914 0.519-0.5335 0.9765-1.1965 2.1925-2.5102 2.2202h-0.0431c-0.8727 0-1.7994-0.5436-2.6165-1.0241l-0.1295-0.0753c-0.9498 0.8153-1.9875 1.5016-3.0853 2.0421l0.0278 0.2027c0.1341 0.9765 0.2837 2.0697-0.1311 2.8789-0.5705 1.1131-1.8456 1.2344-2.9696 1.3419-0.2251 0.0215-0.4317 0.0415-0.6229 0.0676-0.1881 0.0261-0.3839 0.0614-0.5905 0.0982-0.481 0.086-0.979 0.1751-1.474 0.1751h-0.0077z" fill="#FFD800"/>
 <path d="m63.846 37.764c-0.9171 0-1.804-0.2067-2.6348-0.6145-2.9227-1.4357-4.1681-5.1271-2.7197-8.0617 0.9963-2.0173 3.133-3.3209 5.4438-3.3209 0.9287 0 1.817 0.2053 2.6406 0.6102 2.904 1.4257 4.0961 4.8413 2.7715 7.944-0.0115 0.0344-0.0316 0.0789-0.0547 0.1234-0.0158 0.0359-0.0389 0.079-0.0648 0.1192-1.0856 1.9742-3.1502 3.2032-5.3833 3.2032l0.0014-0.0029zm0.0749-10.177c-1.6356 0-3.1373 0.939-3.8269 2.3934-0.4708 0.9935-0.5183 2.1263-0.1339 3.1902 0.3844 1.0668 1.1475 1.9125 2.1467 2.3791 0.5586 0.2613 1.1446 0.3934 1.745 0.3934 1.591 0 3.0638-0.9232 3.8456-2.4092 0.4709-1.0496 0.4939-2.2699 0.0619-3.3439-0.4247-1.0553-1.2353-1.8722-2.282-2.3001-0.4953-0.201-1.0194-0.3043-1.5564-0.3043v0.0014z" fill="#FFD800"/>
 <path d="m35.704 59.429c-0.0494 0-0.097 0-0.1464-0.0018-0.0547 0-0.1094-0.0035-0.1641-0.0035h-5.7446c-0.0547 0-0.1094 0-0.164 0.0035-0.0494 0-0.097 0.0018-0.1464 0.0018-0.0917 0-0.1588-0.0053-0.217-0.0159-0.5608-0.1057-0.6243-0.4456-0.6243-0.6921 0-0.2466 0.0652-0.5865 0.6243-0.6922 0.0582-0.0105 0.1235-0.0158 0.2152-0.0158 0.0494 0 0.0988 0 0.1464 0.0017 0.0547 0 0.1094 0.0036 0.164 0.0036h5.7464c0.0565 0 0.1112 0 0.1658-0.0036 0.0494 0 0.0988-0.0017 0.1464-0.0017 0.0917 0 0.157 0.0053 0.2152 0.0158 0.5591 0.1039 0.6244 0.4438 0.6244 0.6922 0 0.2465-0.0653 0.5864-0.6262 0.6921-0.0582 0.0106-0.1252 0.0159-0.2169 0.0159h0.0018z" fill="#797979"/>
</svg>
