<svg width="75" height="73" version="1.1" viewBox="0 0 75 73" xmlns="http://www.w3.org/2000/svg">
 <g fill="#797979">
  <path d="m9.3145 62.071c-1.5133-1.3367-2.3052-2.9341-2.3882-4.8415-0.05115-1.1676-0.02293-2.3371-0.02293-3.5065-0.00177-6.8298-0.00353-13.658-0.00177-20.488 0-3.0433 1.6597-4.72 4.6987-4.7218 7.9864-7e-3 15.975-0.0211 23.961 0.0177 1.3704 7e-3 2.5045-0.3135 3.3494-1.4143 1.6103-2.0975 3.7039-2.7897 6.3478-2.6805 4.316 0.1761 8.6443 0.0458 12.967 0.0476 2.7462 0 4.4836 1.7242 4.4959 4.4681 0.0088 2.0975 0 4.1951 0.0106 6.2927 0.0035 0.5442-0.0935 1.0303-0.7461 1.0162-0.6385-0.0141-0.7425-0.5055-0.7408-1.0444 0.0071-2.0976 0.0089-4.1951 0.0018-6.2927-0.0053-1.8545-1.1112-2.9693-2.9543-2.9711-4.9104-0.0053-9.819 0.0053-14.729-0.0088-0.9401-0.0035-1.7108 0.3135-2.3599 0.9757-0.5115 0.5231-1.0424 1.0285-1.5433 1.5621-0.9578 1.018-2.1095 1.4882-3.5223 1.4847-8.0852-0.0211-16.17-0.0141-24.256-0.0053-0.5097 0-1.0336 0.0247-1.5239 0.148-1.2346 0.3099-1.9896 1.4406-1.9913 2.8936 0 6.3173 0.00353 12.635 0 18.95 0 1.5111-0.04409 3.024-0.03703 4.5351 0.01411 3.4254 2.2242 5.6287 5.644 5.6287 9.4521 0.0035 18.904 0 28.356 0 0.5803 0 1.3194-0.1145 1.3176 0.7379-0.0035 0.8577-0.7531 0.7274-1.3264 0.7274-12.359 0.0017-24.719-0.0018-37.078 0.0035-1.6527 0-3.0743-0.4931-4.122-1.8193-0.80075-1.0127-1.1235-2.1715-1.1218-3.4678 0.015874-9.9999 0.0070566-20 0.0070566-30 0-1.9021-0.012345-3.8042 0.0017655-5.708 0.022929-2.9957 2.0636-5.0634 5.0532-5.1127 1.5874-0.0264 3.1766-0.037 4.7622 0.0194 0.31223 0.0106 0.67203 0.3135 0.88723 0.5812 0.0828 0.1039-0.1147 0.5407-0.2928 0.715-0.1429 0.1374-0.4498 0.1392-0.68439 0.1409-1.4657 0.0106-2.9314-7e-3 -4.3971 0.0053-2.4816 0.0211-3.8468 1.3808-3.8486 3.8728-0.00706 11.951-0.00529 23.903-0.00176 35.852 0 1.7876 1.1464 3.2247 2.9032 3.3779 1.5874 0.1374 3.1977 0.0282 4.9245 0.0282z"/>
  <path d="m14.816 8.2775v0.96865 15.433c0 0.2183 0.0653 0.4843-0.0335 0.6463-0.1482 0.243-0.4198 0.5812-0.6279 0.5741-0.2646-0.0088-0.5662-0.2853-0.7584-0.5213-0.1112-0.1373-0.0459-0.4226-0.0459-0.641-0.0018-5.4614 0.0088-10.923-0.0159-16.384-0.0035-0.8982 0.2875-1.578 0.926-2.1997 1.8185-1.77 3.6105-3.5681 5.3866-5.3786 0.5133-0.52307 1.0759-0.77492 1.8132-0.77492 10.011 0.010567 20.022 0.0052834 30.034 0.010567 1.411 0 2.0901 0.70271 2.0919 2.1328 0.0035 3.5593 0 7.1187 0 10.68 0 2.7228 0 5.4473 0.0017 8.1701 0 0.1955 0.0723 0.4421-0.0211 0.5742-0.1888 0.2694-0.4639 0.6533-0.7091 0.6586-0.2399 0.0053-0.545-0.3681-0.7143-0.6428-0.1094-0.1779-0.03-0.4755-0.03-0.7186 0-6.1676-7e-3 -12.337 0.0176-18.505 0.0036-0.671-0.1851-0.88058-0.8677-0.87882-9.6691 0.01937-19.338 0.01409-29.007 0.01585-0.194 0-0.3862 0.01761-0.6755 0.0317v1.6766 3.4378c0 1.0931-0.5374 1.6397-1.6121 1.6397h-5.1555l0.0035-0.00529zm5.2649-1.5023v-4.0806c-1.3493 1.3508-2.7374 2.7422-4.0744 4.0806h4.0744z"/>
  <path d="m14.816 37.214c0 1.6027-0.0052 3.1103 0.0036 4.6161 0.0017 0.4543-0.0847 0.8647-0.5962 0.9422-0.5291 0.081-0.8589-0.2131-0.8642-0.7415-0.0177-1.8281-0.0194-3.6579 0-5.486 7e-3 -0.6816 0.4921-0.7996 1.0688-0.7978 3.0037 0.0105 6.0075 7e-3 9.0112 7e-3 2.3934 0 4.7869 0.0106 7.1786-0.0141 0.6067-7e-3 0.9736 0.2624 0.9877 0.8137 0.0159 0.6287-0.5062 0.6675-1.0001 0.6675-3.2965-0.0036-6.593-0.0036-9.8895-0.0053h-5.8999v-0.0018z"/>
  <path d="m31.919 15.514c-3.4147 0-6.8311 0-10.246-0.0035-0.2416 0-0.5397 0.0387-0.7108-0.0811-0.2275-0.1602-0.5009-0.4667-0.4886-0.6956 0.0124-0.2307 0.3246-0.4826 0.5592-0.6481 0.134-0.0951 0.3774-0.0441 0.5732-0.0441 6.8311 0 13.662-0.0035 20.493 0 0.5732 0 1.2505-0.1232 1.388 0.6957 0.0865 0.5143-0.4074 0.7696-1.3933 0.7696h-10.174v0.0071h-0.0018z"/>
  <path d="m27.094 23.609c-1.9013 0-3.8044 0-5.7058 0.0017-0.5327 0-0.9577-0.1902-0.9383-0.7696 0.0194-0.5829 0.4674-0.708 0.993-0.7062 2.7797 0.0123 5.5594 7e-3 8.3409 7e-3 1.0001 0 2.0001 0.0053 3.0002-7e-3 0.5379-0.0071 0.9524 0.1743 0.9383 0.7608-0.0123 0.5424-0.4215 0.7133-0.9189 0.7133-1.9014-0.0035-3.8045 0-5.7058 0h-0.0036z"/>
  <path d="m33.392 8.2758c-1.7338 0-3.4675-0.00352-5.1996 0.00176-0.5397 0-1.1182-0.01937-1.1306-0.7168-0.0123-0.68862 0.5327-0.7573 1.0936-0.75554 3.5399 0.00704 7.0798 0.00352 10.62 0.00352 0.097 0 0.1958-0.00176 0.2928 0.00352 0.4762 0.02818 0.8149 0.236 0.8025 0.75202-0.0123 0.51603-0.3616 0.70976-0.8378 0.70976-1.8802 0.00176-3.7604 0-5.6388 0l-0.0018 0.00176z"/>
 </g>
 <path d="m74.347 49.533c0 2.4903 0.0635 4.9824-0.0158 7.471-0.0953 2.9253-1.3176 5.4191-3.2525 7.58-0.9277 1.0374-1.993 1.9127-3.1748 2.6436-2.7003 1.6713-5.4059 3.3339-8.1063 5.0035-0.1711 0.1056-0.3051 0.162-0.508 0.0352-2.7797-1.7207-5.5911-3.3938-8.3462-5.155-2.8626-1.8298-4.8962-4.3342-5.8557-7.6382-0.3016-1.0373-0.4233-2.1011-0.4233-3.1807 0.0017-4.815 0.0035-9.6318-0.0036-14.447 0-0.2589 0.0424-0.3927 0.3334-0.4561 4.7622-1.0338 9.5209-2.0817 14.283-3.1208 0.1534-0.0335 0.3281-0.037 0.4815-0.0036 4.7604 1.0391 9.5209 2.087 14.281 3.1226 0.2646 0.0581 0.3299 0.1673 0.3299 0.4245-0.0088 2.573-0.0053 5.1461-0.0053 7.7192h-0.0194l0.0017 0.0017zm-2.2488 0.8525c0-2.2544-0.0017-4.5087 0.0036-6.763 0-0.2148-0.0336-0.3363-0.284-0.3909-4.0091-0.8842-8.0146-1.7824-12.024-2.67-0.1782-0.0387-0.3792-0.0334-0.5574 0.0053-3.9861 0.8823-7.9687 1.777-11.955 2.6559-0.2804 0.0616-0.351 0.1725-0.351 0.4438 0.0071 4.2127-0.0035 8.4254 0.0141 12.64 0.0036 0.6798 0.0618 1.3737 0.2099 2.0342 0.6403 2.8654 2.3176 5.0457 4.7252 6.6361 2.4411 1.6132 4.965 3.0997 7.4467 4.6495 0.1834 0.1145 0.2981 0.0458 0.4409-0.0423 1.5962-0.9862 3.2048-1.9531 4.7869-2.9623 1.2611-0.8048 2.5769-1.5604 3.7163-2.5167 2.4605-2.0623 3.8539-4.697 3.8274-7.9834-0.0159-1.9109-0.0035-3.8235-0.0035-5.7361h0.0035z" fill="#FFD800"/>
 <path d="m64.713 49.115c0.488-0.4876 1.2795-0.4876 1.7676 0 0.488 0.4881 0.4879 1.2804 0 1.7686l-6.4971 6.4971c-0.0679 0.0679-0.1427 0.1248-0.2207 0.1738-0.038 0.0521-0.079 0.1034-0.126 0.1504-0.4882 0.4879-1.2795 0.488-1.7676 0l-3.7539-3.7539c-0.4876-0.4881-0.4877-1.2796 0-1.7676 0.4881-0.4881 1.2804-0.488 1.7686 0l2.8799 2.8809 5.9492-5.9493z" clip-rule="evenodd" fill="#FFD800" fill-rule="evenodd"/>
</svg>
