<svg width="308" height="67" viewBox="0 0 308 67" fill="none" xmlns="http://www.w3.org/2000/svg">
<g clip-path="url(#clip0_17_64)">
<path d="M180.586 8.46505L180.864 8.57554C180.988 8.62206 181.2 8.74999 181.507 8.95351C181.814 9.15704 182.079 9.38382 182.309 9.63968C182.54 9.89554 182.752 10.2503 182.947 10.7155C183.142 11.1806 183.236 11.6866 183.236 12.2332C183.236 13.4078 182.817 14.3789 181.973 15.1523C181.129 15.9257 180.026 16.3153 178.662 16.3153H172.926V1.66153H178.456C179.66 1.66153 180.633 2.00461 181.377 2.6966C182.121 3.38858 182.492 4.26664 182.492 5.33078C182.492 5.77853 182.427 6.19721 182.292 6.57519C182.156 6.95316 181.997 7.26135 181.814 7.48232C181.631 7.70329 181.448 7.89519 181.259 8.05219C181.07 8.20919 180.917 8.30805 180.793 8.3662L180.586 8.47087V8.46505ZM178.462 2.70823H174V8.04637H178.462C179.412 8.04637 180.138 7.80796 180.657 7.32532C181.176 6.84267 181.43 6.17977 181.43 5.32497C181.43 4.52831 181.17 3.89448 180.645 3.41765C180.12 2.94082 179.394 2.70823 178.462 2.70823ZM174 15.2686H178.668C179.76 15.2686 180.616 14.9895 181.241 14.4312C181.867 13.873 182.174 13.1403 182.174 12.2332C182.174 11.2737 181.867 10.5061 181.253 9.93624C180.639 9.36637 179.778 9.08144 178.668 9.08144H174V15.2628V15.2686Z" fill="white"/>
<path d="M188.441 10.6631L192.478 10.0409C192.478 9.17448 192.206 8.45342 191.658 7.87192C191.109 7.29043 190.424 7.00549 189.604 7.00549C189.049 7.00549 188.524 7.12761 188.034 7.36602C187.544 7.60443 187.178 7.85448 186.948 8.10452L186.635 8.46505L185.992 7.84285C186.033 7.80214 186.087 7.73818 186.151 7.65095C186.216 7.56373 186.364 7.41836 186.6 7.21483C186.836 7.01131 187.078 6.82523 187.344 6.66822C187.609 6.51122 187.946 6.36584 188.353 6.23791C188.76 6.10999 189.179 6.04602 189.604 6.04602C190.696 6.04602 191.61 6.42981 192.336 7.19157C193.062 7.95333 193.428 8.90117 193.428 10.0351V16.3095H192.472V14.6347C192.442 14.6871 192.395 14.7569 192.33 14.8441C192.265 14.9313 192.118 15.0767 191.894 15.2918C191.669 15.507 191.427 15.6989 191.162 15.8675C190.896 16.0362 190.554 16.1873 190.117 16.3153C189.681 16.4432 189.226 16.5072 188.742 16.5072C187.768 16.5072 186.96 16.228 186.317 15.664C185.673 15.0999 185.355 14.4428 185.355 13.6869C185.355 12.931 185.632 12.2332 186.187 11.6807C186.742 11.1283 187.491 10.7852 188.435 10.6457L188.441 10.6631ZM188.754 15.5826C189.816 15.5826 190.707 15.2337 191.416 14.5417C192.124 13.8497 192.478 12.9717 192.478 11.925V10.9829L188.648 11.6051C187.09 11.8552 186.311 12.553 186.311 13.6985C186.311 14.2044 186.541 14.6406 187.001 15.0185C187.462 15.3965 188.046 15.5826 188.748 15.5826H188.754Z" fill="white"/>
<path d="M204.8 6.267H205.65V16.3153H204.688V7.94753L197.895 16.3211H197.046V6.267H198.002V14.6406L204.806 6.267H204.8ZM200.008 3.13854C200.356 3.48162 200.817 3.65026 201.401 3.65026C201.985 3.65026 202.446 3.48162 202.794 3.13854C203.142 2.79546 203.313 2.34189 203.313 1.7662H204.163C204.163 2.55123 203.903 3.19669 203.378 3.71422C202.853 4.23176 202.198 4.48761 201.401 4.48761C200.604 4.48761 199.949 4.22594 199.424 3.70841C198.899 3.19087 198.639 2.54541 198.639 1.7662H199.489C199.489 2.33607 199.66 2.79546 200.008 3.13854Z" fill="white"/>
<path d="M207.869 7.20902V6.26699H216.479V7.20902H212.649V16.3153H211.693V7.20902H207.863H207.869Z" fill="white"/>
<path d="M230.808 8.46505L231.085 8.57554C231.209 8.62206 231.422 8.74999 231.729 8.95351C232.036 9.15704 232.301 9.38382 232.531 9.63968C232.762 9.89554 232.974 10.2503 233.169 10.7155C233.363 11.1806 233.458 11.6866 233.458 12.2332C233.458 13.4078 233.039 14.3789 232.195 15.1523C231.351 15.9257 230.247 16.3153 228.884 16.3153H223.148V1.66153H228.678C229.882 1.66153 230.855 2.00461 231.599 2.6966C232.343 3.38858 232.714 4.26664 232.714 5.33078C232.714 5.77853 232.649 6.19721 232.514 6.57519C232.378 6.95316 232.219 7.26135 232.036 7.48232C231.853 7.70329 231.67 7.89519 231.481 8.05219C231.292 8.20919 231.139 8.30805 231.015 8.3662L230.808 8.47087V8.46505ZM228.684 2.70823H224.222V8.04637H228.684C229.634 8.04637 230.36 7.80796 230.879 7.32532C231.398 6.84267 231.652 6.17977 231.652 5.32497C231.652 4.52831 231.392 3.89448 230.867 3.41765C230.342 2.94082 229.616 2.70823 228.684 2.70823ZM224.222 15.2686H228.89C229.982 15.2686 230.838 14.9895 231.463 14.4312C232.089 13.873 232.396 13.1403 232.396 12.2332C232.396 11.2737 232.089 10.5061 231.475 9.93624C230.861 9.36637 230 9.08144 228.89 9.08144H224.222V15.2628V15.2686Z" fill="white"/>
<path d="M244.399 6.26699H245.249V16.3153H244.287V7.94752L237.495 16.3211H236.645V6.26699H237.601V14.6406L244.405 6.26699H244.399Z" fill="white"/>
<path d="M250.017 6.26699H257.135V16.3153H256.179V7.20902H250.974V9.20355C250.974 10.6689 250.903 11.9017 250.761 12.8961C250.619 13.8904 250.413 14.6464 250.141 15.1523C249.87 15.6582 249.569 16.0129 249.25 16.2164C248.932 16.4199 248.548 16.5188 248.117 16.5188C247.958 16.5188 247.798 16.5014 247.633 16.4665C247.468 16.4316 247.35 16.3967 247.267 16.356L247.161 16.3153V15.414C247.444 15.5244 247.728 15.5768 248.011 15.5768C248.406 15.5768 248.743 15.4314 249.02 15.1465C249.297 14.8615 249.534 14.2277 249.728 13.245C249.923 12.2622 250.023 10.9132 250.023 9.19774V6.26699H250.017Z" fill="white"/>
<path d="M261.909 6.26699H269.026V16.3153H268.07V7.20902H262.865V9.20355C262.865 10.6689 262.794 11.9017 262.653 12.8961C262.511 13.8904 262.304 14.6464 262.033 15.1523C261.762 15.6582 261.461 16.0129 261.142 16.2164C260.823 16.4199 260.44 16.5188 260.009 16.5188C259.849 16.5188 259.69 16.5014 259.525 16.4665C259.36 16.4316 259.242 16.3967 259.159 16.356L259.053 16.3153V15.414C259.336 15.5244 259.619 15.5768 259.903 15.5768C260.298 15.5768 260.634 15.4314 260.912 15.1465C261.189 14.8615 261.425 14.2277 261.62 13.245C261.815 12.2622 261.915 10.9132 261.915 9.19774V6.26699H261.909Z" fill="white"/>
<path d="M274.863 10.6631L278.899 10.0409C278.899 9.17448 278.628 8.45342 278.079 7.87192C277.53 7.29043 276.846 7.00549 276.025 7.00549C275.471 7.00549 274.945 7.12761 274.456 7.36602C273.966 7.60443 273.6 7.85448 273.37 8.10452L273.057 8.46505L272.414 7.84285C272.455 7.80214 272.508 7.73818 272.573 7.65095C272.638 7.56373 272.786 7.41836 273.022 7.21483C273.258 7.01131 273.5 6.82523 273.765 6.66822C274.031 6.51122 274.367 6.36584 274.774 6.23791C275.182 6.10999 275.601 6.04602 276.025 6.04602C277.117 6.04602 278.032 6.42981 278.758 7.19157C279.484 7.95333 279.85 8.90117 279.85 10.0351V16.3095H278.894V14.6347C278.864 14.6871 278.817 14.7569 278.752 14.8441C278.687 14.9313 278.54 15.0767 278.315 15.2918C278.091 15.507 277.849 15.6989 277.583 15.8675C277.318 16.0362 276.976 16.1873 276.539 16.3153C276.102 16.4432 275.648 16.5072 275.164 16.5072C274.19 16.5072 273.382 16.228 272.738 15.664C272.095 15.0999 271.776 14.4428 271.776 13.6869C271.776 12.931 272.054 12.2332 272.608 11.6807C273.163 11.1283 273.913 10.7852 274.857 10.6457L274.863 10.6631ZM275.176 15.5826C276.238 15.5826 277.129 15.2337 277.837 14.5417C278.545 13.8439 278.899 12.9717 278.899 11.925V10.9829L275.069 11.6051C273.511 11.8552 272.732 12.553 272.732 13.6985C272.732 14.2044 272.963 14.6406 273.423 15.0185C273.883 15.3965 274.467 15.5826 275.17 15.5826H275.176Z" fill="white"/>
<path d="M292.491 15.3791V18.8332H291.535V16.3211H282.511V18.8332H281.555V15.3791H282.405C282.446 15.3267 282.511 15.2453 282.594 15.1465C282.676 15.0476 282.824 14.815 283.031 14.4429C283.237 14.0707 283.426 13.6636 283.585 13.2275C283.745 12.7914 283.892 12.2041 284.022 11.4772C284.152 10.7503 284.217 9.99439 284.217 9.20356V6.27281H290.909V15.3791H292.497H292.491ZM285.167 7.21483V9.20937C285.167 10.4247 285.025 11.5412 284.742 12.5646C284.459 13.588 284.175 14.3091 283.892 14.7278L283.467 15.3791H289.953V7.20902H285.173L285.167 7.21483Z" fill="white"/>
<path d="M301.201 12.9658V16.3211H300.245V12.9658L298.546 11.0876H298.44L294.609 16.3211H293.435L297.79 10.3491L293.972 6.27281H295.247L300.24 11.611V6.26699H301.196V11.6051L306.188 6.26699H307.463L303.645 10.3433L307.994 16.3153H306.831L303.001 11.0818H302.895L301.196 12.96L301.201 12.9658Z" fill="white"/>
<path d="M1.06227 53.7986C0.784901 53.7986 0.542939 53.6998 0.324583 53.5079C0.106227 53.316 0 53.0601 0 52.7519V2.80127C0 2.52796 0.106227 2.28955 0.324583 2.07439C0.542939 1.85924 0.784901 1.75457 1.06227 1.75457H2.53765C2.85043 1.75457 3.1101 1.85924 3.30485 2.07439C3.4996 2.28955 3.59992 2.52796 3.59992 2.80127V52.7519C3.59992 53.0601 3.4996 53.316 3.30485 53.5079C3.1101 53.6998 2.85043 53.7986 2.53765 53.7986H1.06227ZM24.4323 53.0427L5.72447 33.7951L23.311 15.3035C23.8244 14.7976 24.391 14.5475 25.0224 14.5475H27.5601C28.2269 14.5475 28.345 14.7976 27.9142 15.3035L10.2686 33.7951L29.0355 53.0427C29.2302 53.2346 29.301 53.409 29.242 53.566C29.183 53.723 28.9941 53.7986 28.6814 53.7986H26.1437C25.5122 53.7986 24.9457 53.5486 24.4323 53.0427Z" fill="white"/>
<path d="M35.1731 65.8356V28.6779C35.1731 27.9801 35.5095 27.6312 36.1764 27.6312H37.3567C38.0235 27.6312 38.3599 27.9801 38.3599 28.6779V32.7484C39.5402 31.0039 41.0569 29.6374 42.9041 28.6488C44.7512 27.6603 46.7814 27.166 48.9826 27.166C52.7183 27.166 55.8284 28.4569 58.307 31.033C60.7857 33.609 62.025 36.8363 62.025 40.7149C62.025 44.5935 60.7857 47.8208 58.307 50.3969C55.8284 52.9729 52.7183 54.2638 48.9826 54.2638C46.7814 54.2638 44.7512 53.7696 42.9041 52.781C41.0569 51.7925 39.5402 50.4259 38.3599 48.6814V65.8356C38.3599 66.5334 38.0235 66.8823 37.3567 66.8823H36.1764C35.5095 66.8823 35.1731 66.5334 35.1731 65.8356ZM55.7694 33.3299C53.8396 31.3528 51.4436 30.3643 48.5695 30.3643C45.6955 30.3643 43.2995 31.3528 41.3697 33.3299C39.4399 35.307 38.4779 37.7667 38.4779 40.7149C38.4779 43.6631 39.4399 46.1229 41.3697 48.0999C43.2995 50.077 45.6955 51.0656 48.5695 51.0656C51.4436 51.0656 53.8396 50.077 55.7694 48.0999C57.6992 46.1229 58.6611 43.6631 58.6611 40.7149C58.6611 37.7667 57.6992 35.307 55.7694 33.3299Z" fill="white"/>
<path d="M93.1258 41.7035H70.464C70.6588 44.454 71.7624 46.7334 73.7689 48.5361C75.7754 50.3387 78.2363 51.24 81.1458 51.24C84.6454 51.24 87.3837 50.0014 89.3489 47.5184C89.6262 47.2451 89.939 47.1114 90.2931 47.1114C90.4524 47.1114 90.5705 47.1288 90.6472 47.1695L92.0045 47.5766C92.2819 47.6522 92.4649 47.8208 92.5652 48.0709C92.6655 48.3209 92.6124 48.5651 92.4177 48.7977C91.196 50.5015 89.6026 51.839 87.6374 52.8101C85.6722 53.7812 83.5064 54.2638 81.1458 54.2638C77.1327 54.2638 73.7984 52.9729 71.1427 50.3969C68.487 47.8208 67.1592 44.5935 67.1592 40.7149C67.1592 36.8363 68.4457 33.609 71.0247 31.033C73.6036 28.4569 76.82 27.166 80.6736 27.166C84.5273 27.166 87.7555 28.4628 90.3521 31.0621C92.9488 33.6614 94.2471 36.8596 94.2471 40.6568C94.2471 40.9301 94.1409 41.1685 93.9225 41.3836C93.7042 41.5988 93.4386 41.7035 93.1258 41.7035ZM90.8833 39.0286C90.5292 36.47 89.3961 34.3592 87.4899 32.6903C85.5837 31.0214 83.288 30.1898 80.6146 30.1898C77.9412 30.1898 75.7754 31.0214 73.8869 32.6903C71.9984 34.3592 70.8771 36.47 70.523 39.0286H90.8833Z" fill="white"/>
<path d="M101.683 53.7986C101.016 53.7986 100.68 53.4497 100.68 52.7519V28.6779C100.68 27.9801 101.016 27.6312 101.683 27.6312H102.863C103.176 27.6312 103.436 27.7301 103.631 27.922C103.825 28.1139 103.926 28.3697 103.926 28.6779V52.7519C103.926 53.0601 103.825 53.316 103.631 53.5079C103.436 53.6998 103.176 53.7986 102.863 53.7986H101.683ZM116.791 53.0427L105.047 40.2497L115.729 28.4453C116.201 27.9045 116.773 27.6312 117.44 27.6312H119.447C119.76 27.6312 119.948 27.7068 120.007 27.8638C120.066 28.0208 119.996 28.2127 119.801 28.4453L109.119 40.2497L120.922 53.0427C121.353 53.5486 121.235 53.7986 120.568 53.7986H118.562C117.895 53.7986 117.304 53.5486 116.791 53.0427Z" fill="white"/>
<path d="M127.886 53.7986C127.219 53.7986 126.883 53.4497 126.883 52.7519V28.6779C126.883 27.9801 127.219 27.6312 127.886 27.6312H129.066C129.379 27.6312 129.639 27.7301 129.833 27.922C130.028 28.1139 130.128 28.3697 130.128 28.6779V50.7167H143.702V28.6779C143.702 27.9801 144.038 27.6312 144.705 27.6312H145.885C146.163 27.6312 146.405 27.7301 146.623 27.922C146.841 28.1139 146.948 28.3697 146.948 28.6779V50.7167H160.521V1.92902C160.521 1.62083 160.627 1.36497 160.846 1.17307C161.064 0.981179 161.306 0.882324 161.583 0.882324H162.764C163.431 0.882324 163.767 1.23122 163.767 1.92902V52.7519C163.767 53.4497 163.431 53.7986 162.764 53.7986H127.886Z" fill="white"/>
<path d="M172.147 52.7519V28.6779C172.147 27.9801 172.484 27.6312 173.15 27.6312H174.331C174.644 27.6312 174.903 27.7301 175.098 27.922C175.293 28.1139 175.393 28.3697 175.393 28.6779V48.507L192.803 28.3872C193.316 27.8813 193.882 27.6312 194.514 27.6312H195.222C195.535 27.6312 195.795 27.7301 195.989 27.922C196.184 28.1139 196.284 28.3697 196.284 28.6779V52.7519C196.284 53.0601 196.184 53.316 195.989 53.5079C195.795 53.6998 195.535 53.7986 195.222 53.7986H194.101C193.393 53.7986 193.039 53.4497 193.039 52.7519V32.981L175.629 53.0427C175.116 53.5486 174.526 53.7986 173.859 53.7986H173.15C172.484 53.7986 172.147 53.4497 172.147 52.7519Z" fill="white"/>
<path d="M205.603 53.7986C204.936 53.7986 204.6 53.4497 204.6 52.7519V28.6779C204.6 27.9801 204.936 27.6312 205.603 27.6312H206.783C207.096 27.6312 207.356 27.7301 207.55 27.922C207.745 28.1139 207.845 28.3697 207.845 28.6779V38.9123H225.314V28.6779C225.314 28.3697 225.414 28.1139 225.609 27.922C225.804 27.7301 226.063 27.6312 226.376 27.6312H227.556C228.223 27.6312 228.56 27.9801 228.56 28.6779V52.7519C228.56 53.4497 228.223 53.7986 227.556 53.7986H226.376C226.063 53.7986 225.804 53.6998 225.609 53.5079C225.414 53.316 225.314 53.0601 225.314 52.7519V41.9942H207.845V52.7519C207.845 53.0601 207.745 53.316 207.55 53.5079C207.356 53.6998 207.096 53.7986 206.783 53.7986H205.603Z" fill="white"/>
<path d="M239.242 50.3969C236.604 47.8208 235.288 44.5935 235.288 40.7149C235.288 36.8363 236.604 33.609 239.242 31.033C241.88 28.4569 245.161 27.166 249.097 27.166C253.033 27.166 256.256 28.4569 258.894 31.033C261.532 33.609 262.848 36.8363 262.848 40.7149C262.848 44.5935 261.532 47.8208 258.894 50.3969C256.256 52.9729 252.992 54.2638 249.097 54.2638C245.202 54.2638 241.88 52.9729 239.242 50.3969ZM241.661 33.3299C239.696 35.307 238.71 37.7667 238.71 40.7149C238.71 43.6631 239.696 46.1228 241.661 48.0999C243.626 50.077 246.087 51.0656 249.038 51.0656C251.989 51.0656 254.509 50.077 256.474 48.0999C258.439 46.1228 259.425 43.6631 259.425 40.7149C259.425 37.7667 258.439 35.307 256.474 33.3299C254.509 31.3528 252.03 30.3643 249.038 30.3643C246.046 30.3643 243.626 31.3528 241.661 33.3299Z" fill="white"/>
</g>
<defs>
<clipPath id="clip0_17_64">
<rect width="308" height="66" fill="white" transform="translate(0 0.882324)"/>
</clipPath>
</defs>
</svg>
