<?xml version="1.0" encoding="utf-8"?>
<!-- Generator: Adobe Illustrator 28.1.0, SVG Export Plug-In . SVG Version: 6.00 Build 0)  -->
<svg version="1.1" id="Слой_1" xmlns="http://www.w3.org/2000/svg" xmlns:xlink="http://www.w3.org/1999/xlink" x="0px" y="0px"
	 viewBox="0 0 323.8 215.7" style="enable-background:new 0 0 323.8 215.7;" xml:space="preserve">
<style type="text/css">
	.st0{fill:#FFFFFF;}
</style>
<g>
	<g>
		<path class="st0" d="M42.1,157.8h-4.4v-7H4.4v7H0v-16.4c0-3.6,1.8-5.4,5.3-5.4h31.5c3.5,0,5.3,1.8,5.3,5.5
			C42.1,141.4,42.1,157.8,42.1,157.8z M4.4,146.4h33.3V142c0-1.2-0.6-1.7-1.8-1.7H6.1c-1.2,0-1.8,0.6-1.8,1.8L4.4,146.4L4.4,146.4
			L4.4,146.4z"/>
		<path class="st0" d="M83.4,140.4H50.1v17.5h-4.4V136h42.1v21.8h-4.4V140.4z"/>
		<path class="st0" d="M133.4,157.9h-37c-3.4,0-5.2-1.8-5.2-5.3v-11.4c0-3.4,1.7-5.2,5.2-5.2h37v4.3h-36c-1.2,0-1.7,0.6-1.7,1.7v9.7
			c0,1.2,0.6,1.8,1.7,1.8h36.1L133.4,157.9L133.4,157.9z"/>
		<path class="st0" d="M163.3,141.1c0-3.4,1.8-5.1,5.3-5.1h31.6c3.5,0,5.3,1.7,5.3,5.2v12.3h4.4v4.4H159v-4.3h4.4L163.3,141.1
			L163.3,141.1z M167.7,153.5h33.4v-11.4c0-1.2-0.6-1.8-1.9-1.8h-29.8c-1.1,0-1.7,0.6-1.7,1.7V153.5L167.7,153.5z"/>
		<path class="st0" d="M252.9,157.9h-37c-3.4,0-5.2-1.8-5.2-5.3v-11.4c0-3.4,1.7-5.2,5.2-5.2h37v4.3h-36c-1.2,0-1.7,0.6-1.7,1.7v9.7
			c0,1.2,0.6,1.8,1.7,1.8H253L252.9,157.9L252.9,157.9z"/>
		<path class="st0" d="M302.1,157.9h-5.4l-5.2-8.7h-30.7v8.7h-4.4V136h4.5v8.8h30.7l5.3-8.8h5.3l-6.2,11L302.1,157.9z"/>
	</g>
	<g>
		<path class="st0" d="M314.5,145.6v-6.5h2.9c0.7,0,1.2,0.2,1.6,0.5c0.4,0.3,0.6,0.8,0.6,1.3c0,0.9-0.5,1.6-1.4,1.8l2,2.8H319
			l-1.9-2.7h-1.5v2.7L314.5,145.6L314.5,145.6z M315.5,142h1.9c0.7,0,1.2-0.3,1.2-1c0-0.6-0.4-0.9-1.2-0.9h-1.9V142z"/>
	</g>
	<path class="st0" d="M316.7,149.5c-3.9,0-7.1-3.2-7.1-7.1s3.2-7.1,7.1-7.1c3.9,0,7.1,3.2,7.1,7.1S320.6,149.5,316.7,149.5z
		 M316.7,136.2c-3.4,0-6.1,2.7-6.1,6.1s2.7,6.1,6.1,6.1c3.4,0,6.1-2.7,6.1-6.1S320.1,136.2,316.7,136.2z"/>
</g>
<g>
	<path class="st0" d="M72.3,39.8C72.2,39.8,72.3,39.8,72.3,39.8L72.3,39.8z"/>
	<path class="st0" d="M77.3,26.3C77.1,26.3,77.2,26.3,77.3,26.3L77.3,26.3z"/>
	<path class="st0" d="M236.2,22.2c-0.4,0.8-1.2,2-3,4c-1.4,1.8-4.2,4.4-6.1,5.6c-4.4,2.8-9.1,4.8-12.3,5.2c0.4-0.4,0.8-0.8,1.1-1.2
		c3.7-1.9,6.9-4,10.1-7.8c1.6-1.9,5.3-6.6,4.6-10.6c-0.5,1.4-0.8,2.5-1.9,4.1c-2.6,3.9-7.6,7.8-10.2,9.3c0.1-0.4,0.1-0.8,0.1-1.3
		c0.1-1.3,0.1-2.7-0.4-3.9c-0.3-0.7-0.6-1.5-1.1-2c-1.2-1.2-2.5-2.4-3.7-3.5c-1.1-1-2.5-1.4-3.7-2.2c-1.2-0.7-2.5-1.4-3.6-2.2
		c-1.3-0.8-2.5-1.6-3.7-2.5c-1.7-1.1-2.1-2.7-1.4-4.5c0.4-1,1-1.8,1.4-2.7c0.2-0.4,0.5-0.9,0.4-1.3c-0.1-0.8-0.8-1.5-1.5-1.8
		c-0.9-0.4-1.8-0.6-2.7-1c-0.4-0.1-0.8-0.3-1.1-0.5c-0.4-0.3-0.7-0.7-1.1-1c-0.4-0.3-0.8-0.5-1.2-0.3c-0.3,0.1-0.4,0.7-0.3,1.2
		c0.3,1.2,0.5,2.3,0.8,3.5c0.1,0.4,0.1,0.8,0,1.2c-0.4,1.4-1.1,2.8-1.3,4.3c-0.1,0.8-0.3,1.6-0.2,2.3c0.3,1.9,1,3.7,2.3,5.2
		c0.9,1.1,1.9,2.1,3.2,2.9c1.4,0.8,2.7,1.5,4.1,2.3c1.1,0.6,2,1.3,2.6,2.3c0.2,0.3,0.3,0.7,0.2,1.1c0,0.4-0.2,0.9-0.5,1
		c0.6-0.3-0.8,0.7-0.8,0.9c-0.5,0.1-0.9,0.4-1.2,0.6c-0.1,0.1-0.3,0.1-0.4,0.1c-1.6-1.3-3.1-2.8-3.9-3.8c-1.7-2.1-5.8-1.2-8-2.7
		c-2.2-1.6-0.8-1.7-3.2-2.7c-2-0.8-2.8-0.3-3.8-0.4c-0.6-0.5-1.4-0.8-2.1-1c-0.7-0.6-1.7-1.4-2.9-2.7c-3.6-3.8-2.8-5.4-8.4-6.4
		c-4.2-0.7-10.8,1.6-12.9,5.5c-1.4,2.6-1.3,5-2.6,6.4c-0.1-0.1-0.1-0.2-0.2-0.3c-0.8,0.9-1.8,1.5-3.5,1.3c-0.2,0-0.4-0.1-0.5-0.1
		c-0.9-0.4-1.7-1.4-2.9-1.3c-0.6,0-0.6,0.6-1.5,0.5c-0.2,0-0.6-1.3-0.9-1.5c-1.6-0.8-5.3,0.2-5.5,0.3c-1.3,0.5-7.5,3.6-8.6,3.7
		c-2.7,0.2-3,1.3-5.7,1.2c-3.2-0.1-3.5,1.1-7.2,1.9c-3.5,2.8-8.3,4.2-12.4,5.9c-2.5,1-4.3,3-6.4,4.4c-2.3,1.6-4.3,2.5-6.5,4.7
		c-1.8,1.9-3.1,3.8-4.8,5.8c-1.3,1.6-1.1,2.6-3.3,1.8c-1.1-0.4-2.1-1.6-3-2.3c-4.1-3-5.2-9.6-8.2-12.4c-1.4-1.3-3.3-0.9-4.8-1.6
		c-1.4,3.1,1.9,6.4,2.4,6.8c0.1,0.1,0.1,0.1,0,0c0,0.3-4,0.5,0.8,6c0.3,0.3,1.1,0.8,1.5,1c-4.4-2,3.5,7.7,3.5,5.2
		c0.3,0.4,0.6,0.9,1.2,1.1c1.1,0.5,2.6,0.2,3.7,0.6c2.6,0.9,3,3.3,3,5.9c0,2.5-0.4,5-0.8,7.5c-0.3,1.6-0.6,3.8-1.6,7.2
		c-1,3.3-1.9,3.4-1.9,8.3c0,2.4-0.3,4.1-0.2,6.4c0,0.4-0.7,4.4-1.3,7.7c-0.1,0.3-0.2,0.5-0.1,0.5c-1,3.1-1.9,3.5-1.9,6.4
		c-0.1,4.7,6.1,3.7,8.3,3.7c2.7,0,8.1,0,6.3-3.6c-0.5-1.1-2.3-1.7-2.8-2.8c-0.4-0.8-0.3-4.2-0.2-5.8c0.6-1.9,1.2-3.8,1.3-5.3
		c0,0,5.9-4.4,6.9-5.2c2-1.9,2.4-4.6,3.8-4.3c0.8,0.2,1.6,3,4,5.6c1.1,1.2,2.5,2.2,3.1,3c0.5,0.7,5,1.6,5.1,4.6
		c1,0.8,1.5,7.5,1.8,8.5c0.8,2.9,1.7,3.3,4.5,4.2c2.1,0.7,5.2,0.6,7.6-0.1c3.1-0.9,3-1.7,1.5-4.5c-0.6-1.1-2.8-2.2-4.9-5.7
		c-1.8-3.1-4.2-12.2-1.3-14.2c1.8-1.2,2.1,2.3,4.2,2.2c4.7-0.2,6.6-3,5.5,0c-0.9,2.5-1,1.3-1.3,4.3c-0.1,1.2-0.5,1.3-0.4,2.5
		c0.1,1.1,1,2.3,1,3c0.1,2.1-2,3.4-0.6,6.4c0.4-0.1-0.1,1.3,0.4,1.3c-1,3.1-1.9,3.5-1.9,6.4c-0.1,4.7,6.1,3.7,8.3,3.7
		c2.7,0,8.1,0,6.4-3.6c-0.5-1.1-2.3-1.7-2.8-2.8c-0.6-1.1-0.1-4.4-0.1-5.7c0,0,2-4.2,2.5-5.4c0.2-0.4,1.1-1.6,1.5-2.8
		c0.9-2.7,1.5-3.2,2.2-6.1c0.3-1.3,0.5-4.7,1.4-5.7c0.4-0.5,0.5-2,1.1-1.6c2.1,1.3,2.8,8.7,6.6,8.7c0.3,1.3-0.5,1.9,1,3.4
		c1.4-5.3,1.4,0.5,2,0.3c0.2,2.2,4.9,2.7,5.9,3.8c0.8,0.9-0.3,1,0.8,1.9c0.7,0.6,1.1,0.8,1.9,1.4c2.6,2-1.6,9.9,2.8,10.3
		c0.1,0.2,1-0.1,1.1,0.2c2.9,1.1,6,0.2,9.5,0.1c2.5-2.9-1.5-3.4-1.9-4.7c-0.3-1-0.8-7.3-0.6-10.2c0.2-3.3-2-4.9-2.1-4.9
		c-3.3-2.1-3.9-4.9-4.8-6.1c-3.1-4.2-1.3-10.6-1.4-15.5c-0.1-3.7-2.2-4,2-4.2c1.3,0,1.5-3.9,2.1-4.8c0.4,0.2,0.6,3,0.7,3.1
		c1.6-1.5,5.4-12.6,12.9-11.2c1.2,0.2,6.3-2.5,6.8-4.4c0.3-1-5.5-2.9,1.3-3.1l2.6,0.8c1,0.2,1.9,0.4,2.8,0.6
		c1.2,0.2,2.3,0.6,3.5,0.6s2.4,0.2,3.6,0c0.2,0,0.4,0,0.5,0c1.6,0,3.1-0.5,4.6-1.3c0.1,0,0.1-0.1,0.1-0.1c0.4-0.1,0.9-0.2,1.2-0.4
		c10.3-3.9,13.8-8.6,14.9-9.8C234.4,28.4,236.4,24.5,236.2,22.2z"/>
</g>
<rect x="0.3" y="174.5" class="st0" width="303" height="2"/>
<g>
	<path class="st0" d="M0.6,208.2v-1.7h3v1.8c0,1.3,0.6,2,1.7,2c0.6,0,1-0.2,1.2-0.5c0.3-0.3,0.4-0.9,0.4-1.8v-1.7
		c0-0.9-0.2-1.6-0.5-2c-0.3-0.4-0.9-0.6-1.6-0.6H3.7v-2.9h1.2c0.7,0,1.1-0.2,1.4-0.5c0.3-0.3,0.5-0.9,0.5-1.6v-1.5
		c0-1.4-0.5-2-1.6-2c-1,0-1.5,0.6-1.5,1.9v1.3h-3v-1.1c0-1.6,0.4-2.9,1.2-3.7c0.8-0.9,2-1.3,3.5-1.3c1.5,0,2.7,0.4,3.5,1.3
		c0.8,0.9,1.2,2.1,1.2,3.7v0.7c0,2.2-0.8,3.5-2.3,4.1v0.1c1.6,0.6,2.3,2,2.3,4.2v1.8c0,1.6-0.4,2.9-1.2,3.7c-0.8,0.9-2,1.3-3.6,1.3
		c-1.6,0-2.8-0.4-3.6-1.3C1,211.1,0.6,209.8,0.6,208.2z"/>
	<path class="st0" d="M24.8,212.9h-3.2l-0.6-4h-3.7l-0.6,4h-3l3.3-20.3h4.3L24.8,212.9z M19.3,196l-1.4,10.2h2.9L19.3,196z"/>
	<path class="st0" d="M32.4,212.9h-3.2v-20.3h8.1v2.9h-5V212.9z"/>
	<path class="st0" d="M41.5,208.1v-10.7c0-1.6,0.4-2.9,1.2-3.8c0.8-0.9,2-1.3,3.6-1.3c1.6,0,2.8,0.4,3.6,1.3
		c0.8,0.9,1.2,2.1,1.2,3.8v10.7c0,1.6-0.4,2.9-1.2,3.8c-0.8,0.9-2,1.3-3.6,1.3c-1.6,0-2.8-0.4-3.6-1.3
		C41.9,211,41.5,209.8,41.5,208.1z M48,208.3v-11.1c0-1.3-0.6-2-1.7-2c-1.1,0-1.7,0.7-1.7,2v11.1c0,1.3,0.6,2,1.7,2
		C47.4,210.3,48,209.7,48,208.3z"/>
	<path class="st0" d="M59.4,212.9h-3.2v-20.3h4.7c3.2,0,4.8,1.7,4.8,5v2c0,3.3-1.6,5-4.8,5h-1.5V212.9z M59.4,195.5v6.2h1.5
		c0.5,0,0.9-0.1,1.2-0.4c0.3-0.3,0.4-0.8,0.4-1.5v-2.4c0-0.7-0.1-1.2-0.4-1.5c-0.3-0.3-0.6-0.4-1.2-0.4H59.4z"/>
	<path class="st0" d="M70.1,208.1v-10.7c0-1.6,0.4-2.9,1.2-3.8c0.8-0.9,2-1.3,3.6-1.3c1.6,0,2.8,0.4,3.6,1.3
		c0.8,0.9,1.2,2.1,1.2,3.8v10.7c0,1.6-0.4,2.9-1.2,3.8c-0.8,0.9-2,1.3-3.6,1.3c-1.6,0-2.8-0.4-3.6-1.3
		C70.5,211,70.1,209.8,70.1,208.1z M76.5,208.3v-11.1c0-1.3-0.6-2-1.7-2c-1.1,0-1.7,0.7-1.7,2v11.1c0,1.3,0.6,2,1.7,2
		C76,210.3,76.5,209.7,76.5,208.3z"/>
	<path class="st0" d="M95.6,192.6V210h1.6v5.6H94v-2.7h-7v2.7h-3.2V210h1.7c0.3-0.4,0.5-1.1,0.6-2.1l0.5-15.3H95.6z M88.6,210h3.8
		v-14.5h-2.8l-0.3,12.2C89.3,208.7,89.1,209.4,88.6,210z"/>
	<path class="st0" d="M104.8,212.9h-3.2v-20.3h3.2v8.3h3.4v-8.3h3.2v20.3h-3.2v-9.1h-3.4V212.9z"/>
	<path class="st0" d="M121.4,212.9h-4.7v-20.3h3.2v7.7h1.5c3.2,0,4.8,1.7,4.8,5v2.6C126.1,211.3,124.5,212.9,121.4,212.9z
		 M119.9,203.2v6.8h1.5c0.5,0,0.9-0.1,1.2-0.4c0.3-0.3,0.4-0.8,0.4-1.5v-3c0-0.7-0.1-1.2-0.4-1.5c-0.3-0.3-0.6-0.4-1.2-0.4H119.9z
		 M131.1,212.9h-3.2v-20.3h3.2V212.9z"/>
	<path class="st0" d="M145,212.9h-8.7v-20.3h8.7v2.9h-5.5v5.4h4.4v2.9h-4.4v6.2h5.5V212.9z"/>
	<path class="st0" d="M168.1,192.6V210h1.6v5.6h-3.2v-2.7h-7v2.7h-3.2V210h1.7c0.3-0.4,0.5-1.1,0.6-2.1l0.5-15.3H168.1z M161.1,210
		h3.8v-14.5h-2.8l-0.3,12.2C161.8,208.7,161.5,209.4,161.1,210z"/>
	<path class="st0" d="M173.8,208.1v-10.7c0-1.6,0.4-2.9,1.2-3.8c0.8-0.9,2-1.3,3.6-1.3c1.6,0,2.8,0.4,3.6,1.3
		c0.8,0.9,1.2,2.1,1.2,3.8v10.7c0,1.6-0.4,2.9-1.2,3.8c-0.8,0.9-2,1.3-3.6,1.3c-1.6,0-2.8-0.4-3.6-1.3
		C174.2,211,173.8,209.8,173.8,208.1z M180.3,208.3v-11.1c0-1.3-0.6-2-1.7-2c-1.1,0-1.7,0.7-1.7,2v11.1c0,1.3,0.6,2,1.7,2
		C179.8,210.3,180.3,209.7,180.3,208.3z"/>
	<path class="st0" d="M191.3,212.9h-2.8v-20.3h4.5l2.1,14.7l2.1-14.7h4.5v20.3h-3v-15.4l-2.4,15.4h-2.7l-2.4-15.4V212.9z"/>
	<path class="st0" d="M217.1,212.9h-3.2l-0.6-4h-3.7l-0.6,4h-3l3.3-20.3h4.3L217.1,212.9z M211.5,196l-1.4,10.2h2.9L211.5,196z"/>
	<path class="st0" d="M228.8,208.2v-10.9c0-1.6,0.4-2.8,1.2-3.7c0.8-0.9,2-1.3,3.5-1.3c1.5,0,2.7,0.4,3.5,1.3
		c0.8,0.9,1.2,2.1,1.2,3.7v2.1h-3v-2.3c0-1.3-0.5-1.9-1.6-1.9c-1.1,0-1.6,0.6-1.6,1.9v11.3c0,1.2,0.5,1.9,1.6,1.9
		c1.1,0,1.6-0.6,1.6-1.9v-3h3v2.7c0,1.6-0.4,2.8-1.2,3.7c-0.8,0.9-2,1.3-3.5,1.3c-1.5,0-2.7-0.4-3.5-1.3
		C229.2,211.1,228.8,209.8,228.8,208.2z"/>
	<path class="st0" d="M259.3,212.9h-9.2v-2.2c0-1.5,0.2-2.8,0.7-3.9c0.5-1.1,1.3-2.2,2.5-3.5c1.2-1.3,2.1-2.4,2.5-3.2
		c0.4-0.9,0.7-1.7,0.7-2.7c0-0.9-0.1-1.4-0.4-1.8c-0.3-0.3-0.7-0.5-1.2-0.5c-1.1,0-1.7,0.7-1.7,2v2.2h-3v-2c0-1.6,0.4-2.9,1.2-3.8
		c0.8-0.9,2-1.3,3.5-1.3c1.5,0,2.7,0.4,3.5,1.3c0.8,0.9,1.2,2.1,1.2,3.8c0,1.3-0.3,2.5-0.9,3.6c-0.6,1.2-1.6,2.5-3,4
		c-0.9,1-1.6,1.8-1.9,2.4c-0.3,0.6-0.5,1.3-0.5,2.1v0.4h6.1V212.9z"/>
	<path class="st0" d="M264,208.1v-10.7c0-1.6,0.4-2.9,1.2-3.8c0.8-0.9,2-1.3,3.6-1.3c1.6,0,2.8,0.4,3.6,1.3c0.8,0.9,1.2,2.1,1.2,3.8
		v10.7c0,1.6-0.4,2.9-1.2,3.8c-0.8,0.9-2,1.3-3.6,1.3c-1.6,0-2.8-0.4-3.6-1.3C264.4,211,264,209.8,264,208.1z M270.5,208.3v-11.1
		c0-1.3-0.6-2-1.7-2c-1.1,0-1.7,0.7-1.7,2v11.1c0,1.3,0.6,2,1.7,2C269.9,210.3,270.5,209.7,270.5,208.3z"/>
	<path class="st0" d="M278.5,208.1v-10.7c0-1.6,0.4-2.9,1.2-3.8c0.8-0.9,2-1.3,3.6-1.3c1.6,0,2.8,0.4,3.6,1.3
		c0.8,0.9,1.2,2.1,1.2,3.8v10.7c0,1.6-0.4,2.9-1.2,3.8c-0.8,0.9-2,1.3-3.6,1.3c-1.6,0-2.8-0.4-3.6-1.3
		C278.9,211,278.5,209.8,278.5,208.1z M285,208.3v-11.1c0-1.3-0.6-2-1.7-2c-1.1,0-1.7,0.7-1.7,2v11.1c0,1.3,0.6,2,1.7,2
		C284.4,210.3,285,209.7,285,208.3z"/>
	<path class="st0" d="M297.6,213.2c-1.5,0-2.7-0.4-3.5-1.3c-0.8-0.9-1.2-2.1-1.2-3.8v-0.4h3v0.6c0,1.3,0.6,2,1.7,2
		c0.6,0,1.1-0.2,1.3-0.6s0.4-1,0.4-1.9V204c-0.6,1.2-1.6,1.8-3,1.8c-2.4,0-3.5-1.5-3.5-4.6v-3.6c0-1.6,0.4-2.9,1.2-3.8
		c0.8-0.9,2-1.3,3.6-1.3c1.6,0,2.8,0.4,3.6,1.3c0.8,0.9,1.2,2.1,1.2,3.8V208C302.4,211.5,300.8,213.2,297.6,213.2z M299.3,200.8
		v-3.6c0-1.3-0.6-2-1.7-2c-1.1,0-1.7,0.7-1.7,2v3.6c0,1.3,0.6,2,1.7,2C298.7,202.8,299.3,202.2,299.3,200.8z"/>
</g>
</svg>
